<?xml version="1.0" standalone="no"?>
<!DOCTYPE svg PUBLIC "-//W3C//DTD SVG 20010904//EN"
 "http://www.w3.org/TR/2001/REC-SVG-20010904/DTD/svg10.dtd">
<svg version="1.0" xmlns="http://www.w3.org/2000/svg"
 width="1372.000000pt" height="1372.000000pt" viewBox="0 0 1372.000000 1372.000000"
 preserveAspectRatio="xMidYMid meet">
<metadata>
Created by potrace 1.11, written by Peter Selinger 2001-2013
</metadata>
<g transform="translate(0.000000,1372.000000) scale(0.100000,-0.100000)"
fill="#000000" stroke="none">
<path d="M657 10452 c-44 -2 -65 -7 -61 -13 4 -7 -1 -7 -14 0 -14 7 -23 8 -27
1 -3 -5 -38 -10 -76 -10 -54 0 -68 -3 -63 -12 6 -10 4 -10 -8 0 -11 9 -18 10
-23 2 -3 -5 -41 -10 -86 -10 -56 0 -79 -4 -79 -12 0 -9 -4 -8 -11 2 -8 11 -12
12 -16 3 -3 -8 -24 -13 -53 -13 -26 0 -52 -6 -57 -12 -10 -15 -10 -68 0 -85 4
-6 3 -15 -3 -18 -8 -5 -8 -11 0 -20 8 -10 8 -15 0 -20 -8 -5 -8 -11 1 -21 8
-10 8 -18 0 -27 -7 -10 -7 -17 0 -24 7 -7 8 -13 0 -17 -5 -4 -8 -13 -4 -21 4
-12 25 -15 89 -15 46 0 84 -4 84 -8 0 -10 11 -11 88 -12 28 0 52 -5 52 -10 0
-6 5 -10 11 -10 5 0 7 6 3 13 -6 9 -5 9 7 0 8 -6 43 -12 79 -14 36 -1 71 -7
79 -13 11 -8 13 -8 7 2 -4 6 -2 12 3 12 6 0 11 -4 11 -10 0 -5 25 -10 56 -10
34 0 53 -4 49 -10 -3 -5 -2 -10 3 -10 10 0 8 -47 -2 -57 -3 -4 -1 -12 5 -20 6
-7 7 -13 2 -13 -5 0 -10 -7 -10 -15 0 -8 3 -15 7 -15 8 0 4 -49 -4 -57 -3 -4
-1 -12 5 -20 9 -10 8 -13 -1 -13 -9 0 -9 -4 -2 -13 7 -8 7 -18 2 -27 -5 -9 -5
-19 2 -27 7 -9 7 -13 -2 -13 -9 0 -9 -4 -2 -13 7 -8 7 -18 2 -27 -5 -9 -5 -19
2 -27 7 -9 7 -13 -2 -13 -9 0 -9 -4 -2 -13 7 -8 7 -18 2 -27 -5 -9 -5 -19 2
-27 7 -9 7 -13 -2 -13 -9 0 -9 -4 -2 -13 7 -8 7 -18 2 -27 -5 -9 -5 -19 2 -27
7 -9 7 -13 -2 -13 -9 0 -9 -4 -2 -13 7 -8 7 -18 2 -27 -5 -9 -5 -19 2 -27 7
-9 7 -13 -2 -13 -9 0 -9 -4 -2 -13 7 -8 7 -18 2 -27 -5 -9 -5 -19 2 -27 7 -9
7 -13 -2 -13 -9 0 -9 -4 -2 -13 7 -8 7 -18 2 -27 -5 -9 -5 -19 2 -27 6 -7 7
-13 2 -13 -5 0 -9 -25 -9 -55 0 -30 3 -55 6 -55 7 0 3 -49 -5 -57 -3 -4 -1
-12 5 -20 6 -7 7 -13 2 -13 -5 0 -10 -7 -10 -15 0 -8 3 -15 7 -15 3 0 3 -27 0
-60 -3 -33 -3 -60 1 -60 7 0 3 -49 -5 -57 -3 -4 -1 -12 5 -20 6 -7 7 -13 2
-13 -5 0 -10 -7 -10 -15 0 -8 3 -15 7 -15 3 0 3 -27 0 -60 -3 -33 -3 -60 1
-60 7 0 3 -49 -5 -57 -3 -4 -1 -12 5 -20 6 -7 7 -13 2 -13 -5 0 -10 -7 -10
-15 0 -8 3 -15 7 -15 3 0 3 -27 0 -60 -3 -33 -3 -60 1 -60 7 0 3 -49 -5 -57
-3 -4 -1 -12 5 -20 6 -7 7 -13 2 -13 -5 0 -10 -7 -10 -15 0 -8 3 -15 7 -15 3
0 3 -27 0 -60 -3 -33 -3 -60 1 -60 7 0 3 -49 -5 -57 -3 -4 -1 -12 5 -20 6 -7
7 -13 2 -13 -5 0 -10 -7 -10 -15 0 -8 3 -15 6 -15 8 0 5 -130 -3 -137 -3 -4
-1 -12 5 -20 9 -10 8 -13 -1 -13 -9 0 -9 -4 -2 -13 7 -8 7 -18 2 -27 -5 -9 -5
-19 2 -27 7 -9 7 -13 -2 -13 -9 0 -9 -4 -2 -13 7 -8 7 -18 2 -27 -5 -9 -5 -19
2 -27 7 -9 7 -13 -2 -13 -9 0 -9 -4 -2 -13 7 -8 7 -18 2 -27 -5 -9 -5 -19 2
-27 7 -9 7 -13 -2 -13 -9 0 -9 -4 -2 -13 7 -8 7 -18 2 -27 -5 -9 -5 -19 2 -27
7 -9 7 -13 -2 -13 -9 0 -9 -4 -2 -13 7 -8 7 -18 2 -27 -5 -9 -5 -19 2 -27 7
-9 7 -13 -2 -13 -9 0 -9 -4 -2 -13 7 -8 7 -18 2 -27 -5 -9 -5 -19 2 -27 7 -9
7 -13 -2 -13 -9 0 -9 -4 -2 -13 7 -8 7 -18 2 -27 -5 -9 -5 -19 2 -27 6 -8 6
-13 1 -13 -5 0 -10 -7 -10 -15 0 -8 3 -15 7 -15 8 0 4 -49 -4 -57 -3 -4 -1
-12 5 -20 6 -7 7 -13 2 -13 -5 0 -10 -7 -10 -15 0 -8 3 -15 7 -15 3 0 3 -27 0
-60 -3 -33 -3 -60 1 -60 7 0 3 -49 -5 -57 -3 -4 -1 -12 5 -20 6 -7 7 -13 2
-13 -5 0 -10 -7 -10 -15 0 -8 3 -15 7 -15 3 0 3 -27 0 -60 -3 -33 -3 -60 1
-60 7 0 3 -49 -5 -57 -3 -4 -1 -12 5 -20 6 -7 7 -13 2 -13 -5 0 -10 -7 -10
-15 0 -8 4 -15 9 -15 5 0 4 -9 -2 -20 -6 -11 -7 -20 -2 -20 10 0 8 -48 -2 -57
-3 -4 -1 -12 5 -20 6 -7 7 -13 2 -13 -5 0 -10 -7 -10 -15 0 -8 3 -15 7 -15 3
0 3 -27 0 -60 -3 -33 -3 -60 1 -60 7 0 3 -49 -5 -57 -3 -4 -1 -12 5 -20 6 -7
7 -13 2 -13 -5 0 -10 -7 -10 -15 0 -8 3 -15 7 -15 3 0 3 -27 0 -60 -3 -33 -3
-60 1 -60 7 0 3 -49 -5 -57 -3 -4 -1 -12 5 -20 6 -7 7 -13 2 -13 -5 0 -10 -7
-10 -15 0 -8 3 -15 7 -15 8 0 4 -49 -4 -57 -3 -4 -1 -12 5 -20 9 -10 8 -13 -1
-13 -9 0 -9 -4 -2 -13 7 -8 7 -18 2 -27 -5 -9 -5 -19 2 -27 7 -9 7 -13 -2 -13
-9 0 -9 -4 -2 -13 7 -8 7 -18 2 -27 -5 -9 -5 -19 2 -27 7 -9 7 -13 -2 -13 -9
0 -9 -4 -2 -13 7 -8 7 -18 2 -27 -5 -9 -5 -19 2 -27 7 -9 7 -13 -2 -13 -9 0
-9 -4 -2 -13 7 -8 7 -18 2 -27 -5 -9 -5 -19 2 -27 7 -9 7 -13 -2 -13 -9 0 -9
-4 -2 -13 7 -8 7 -18 2 -27 -5 -9 -5 -19 2 -27 7 -9 7 -13 -2 -13 -9 0 -9 -4
-2 -13 7 -8 7 -18 2 -27 -5 -9 -5 -19 2 -27 7 -9 7 -13 -2 -13 -9 0 -9 -4 -2
-13 7 -8 7 -18 2 -27 -5 -9 -5 -19 2 -27 6 -7 7 -13 2 -13 -5 0 -9 -25 -9 -55
0 -30 3 -55 6 -55 7 0 3 -49 -5 -57 -3 -4 -1 -12 5 -20 6 -7 7 -13 2 -13 -5 0
-10 -7 -10 -15 0 -8 3 -15 7 -15 3 0 3 -27 0 -60 -3 -33 -3 -60 1 -60 7 0 3
-49 -5 -57 -3 -4 -1 -12 5 -20 6 -7 7 -13 2 -13 -5 0 -10 -7 -10 -15 0 -8 3
-15 7 -15 3 0 3 -27 0 -60 -3 -33 -3 -60 1 -60 8 0 4 -38 -7 -64 -5 -14 -4
-17 5 -12 9 6 12 2 10 -10 -1 -11 1 -27 6 -37 6 -15 10 -16 16 -5 7 10 12 8
25 -10 9 -13 21 -21 27 -19 7 2 18 -3 25 -12 8 -9 11 -10 7 -4 -10 20 6 15 26
-9 12 -13 19 -16 19 -8 0 9 5 7 15 -6 10 -14 14 -15 15 -5 0 11 4 10 16 -5 8
-10 13 -13 9 -6 -3 6 -1 12 4 12 6 0 11 -4 11 -10 0 -5 14 -10 30 -10 17 0 30
-4 30 -10 0 -5 5 -10 11 -10 5 0 7 6 3 13 -4 6 1 5 12 -4 10 -9 25 -14 33 -11
10 3 12 0 7 -14 -6 -15 -5 -16 5 -7 8 8 18 9 31 2 13 -7 18 -6 18 3 1 8 6 6
14 -5 11 -14 15 -15 19 -5 4 10 6 10 6 1 1 -7 10 -13 21 -13 11 0 20 -4 20
-10 0 -5 5 -10 11 -10 5 0 7 6 3 13 -6 9 -5 9 7 0 8 -6 43 -13 77 -14 34 -1
62 -6 62 -11 0 -4 7 -8 15 -8 8 0 15 -6 15 -12 0 -9 3 -8 10 2 7 12 12 12 22
2 7 -7 42 -12 95 -12 49 0 83 -4 83 -10 0 -5 5 -10 11 -10 5 0 7 6 3 13 -6 9
-5 9 7 1 15 -13 119 -23 119 -12 0 3 9 4 20 1 11 -3 20 -9 20 -14 0 -5 5 -9
11 -9 5 0 7 6 3 13 -6 9 -4 9 8 -1 12 -10 71 -13 247 -11 127 0 234 5 237 10
3 5 34 9 70 9 50 0 63 3 58 12 -5 9 -2 9 9 -1 15 -12 20 -9 19 9 0 3 22 3 49
2 27 -2 49 0 49 6 0 5 10 8 23 8 12 -1 31 2 42 8 22 11 27 12 68 14 20 2 26 6
21 15 -5 8 -3 8 9 -2 14 -11 18 -11 22 1 4 9 16 14 31 12 13 -1 24 2 24 7 0 6
4 8 9 5 5 -3 12 1 15 10 5 13 9 14 20 5 11 -10 18 -7 30 11 11 15 16 17 16 8
0 -9 3 -11 8 -5 11 16 56 39 47 24 -5 -7 -3 -10 6 -7 8 3 13 10 12 16 -1 6 9
9 22 8 13 -2 23 2 22 8 -1 6 8 10 21 10 18 -1 20 1 11 13 -10 11 -8 12 6 7 11
-5 16 -4 12 3 -3 5 0 10 8 10 8 0 11 -5 8 -11 -4 -6 0 -5 9 1 8 7 18 10 22 6
4 -4 4 0 0 10 -5 13 -1 17 16 17 11 0 18 5 15 10 -3 6 1 10 9 10 9 0 16 4 16
8 0 5 7 9 15 10 8 1 22 3 30 4 8 1 12 5 9 10 -3 4 2 8 10 8 9 0 21 9 28 20 7
11 20 20 30 20 9 0 23 9 31 21 11 15 16 17 20 7 3 -7 6 -2 6 12 1 20 3 22 11
10 8 -13 10 -12 10 3 0 10 4 16 9 12 5 -3 18 5 28 18 10 13 25 27 33 31 12 7
13 6 3 -5 -7 -7 -13 -18 -13 -23 0 -6 7 0 16 12 8 12 12 27 9 32 -3 6 1 10 10
10 11 0 15 5 12 14 -4 9 -1 13 6 11 18 -7 38 9 40 33 0 11 5 18 9 16 5 -3 5
-10 2 -16 -4 -7 -2 -8 4 -4 6 4 9 13 5 21 -4 11 -1 13 11 9 15 -6 22 11 17 39
-1 5 3 6 8 3 5 -4 12 -2 16 4 4 6 11 7 17 4 7 -5 9 -1 5 9 -6 16 7 22 38 18 6
-1 1 6 -9 14 -19 14 -12 20 16 16 4 0 5 6 1 15 -3 9 -1 14 7 12 7 -2 15 3 18
11 3 9 0 11 -9 7 -8 -4 -5 0 6 9 11 9 19 21 17 26 -1 6 2 8 8 4 6 -4 7 -12 3
-19 -4 -7 0 -3 10 8 10 10 16 25 13 33 -3 7 0 12 7 10 7 -1 11 8 11 23 -2 23
-1 23 12 5 14 -19 14 -19 12 5 -2 14 2 24 8 23 5 -1 16 8 24 20 12 20 12 21
-3 9 -12 -10 -17 -10 -23 -1 -4 7 -3 10 2 7 12 -8 35 17 26 28 -4 4 -2 4 4 1
7 -4 18 1 25 10 8 9 9 14 3 10 -6 -3 -11 0 -11 7 0 8 7 12 15 8 10 -3 13 -1 8
6 -4 7 -2 12 5 12 7 0 9 3 6 7 -4 3 2 13 14 21 16 11 17 17 8 28 -9 11 -8 15
5 20 9 3 16 15 16 26 0 12 4 17 12 12 7 -5 8 -3 4 5 -5 7 0 19 10 27 11 9 13
12 6 9 -11 -6 -11 -3 0 16 7 13 18 27 23 31 6 5 6 8 1 8 -6 0 -1 7 10 16 10 8
13 13 7 9 -9 -4 -11 -1 -7 9 3 9 11 13 18 9 6 -4 5 1 -3 11 -12 15 -12 17 0
14 9 -2 13 4 11 16 -2 11 1 15 7 11 6 -3 11 -1 11 4 0 6 -6 11 -12 11 -10 0
-9 3 1 9 7 5 10 14 7 20 -4 6 -2 11 5 11 6 0 9 8 6 20 -3 11 -1 18 4 14 5 -3
9 0 9 6 0 6 4 9 9 5 5 -3 13 0 17 6 4 7 3 9 -4 5 -20 -12 -22 11 -2 29 15 14
17 21 9 32 -9 10 -8 13 0 13 7 0 9 5 6 10 -3 6 -2 10 2 10 5 0 10 10 10 22 1
13 7 24 13 26 8 3 7 8 -1 18 -6 8 -7 14 -2 14 5 0 9 8 10 18 3 42 8 62 15 62
4 0 4 7 1 17 -5 11 -3 14 6 8 10 -6 11 -3 2 14 -8 15 -9 21 -1 21 6 0 9 4 5 9
-3 5 -1 12 5 16 7 4 6 14 -2 28 -10 19 -9 20 4 9 13 -10 15 -9 13 13 -2 14 0
25 3 25 4 0 7 16 7 35 0 19 -3 35 -8 35 -4 0 -3 8 2 19 6 10 7 21 4 25 -3 3
-2 6 4 6 5 0 9 14 8 30 -1 17 2 33 7 36 4 3 4 13 -1 23 -6 10 -6 23 -1 31 5 9
5 19 -2 27 -7 9 -7 13 0 13 6 0 7 13 2 34 -4 19 -4 40 1 47 4 7 3 19 -3 26 -7
9 -7 13 2 13 9 0 9 4 2 13 -7 8 -7 18 -2 27 5 9 5 19 -2 27 -7 9 -7 13 0 13 6
0 7 13 2 34 -4 19 -4 40 1 47 4 7 3 19 -3 26 -7 9 -7 13 0 13 6 0 7 13 2 34
-4 19 -4 40 1 47 4 7 3 19 -3 26 -6 7 -7 13 -2 13 5 0 9 11 9 25 0 14 -4 25
-9 25 -4 0 -6 9 -3 20 3 11 1 18 -3 15 -5 -3 -11 -1 -15 5 -3 5 -1 10 6 10 8
0 8 4 -1 15 -7 8 -8 15 -3 15 11 0 12 62 2 70 -4 3 -8 19 -10 35 -2 17 -7 35
-12 42 -4 6 -3 14 3 18 7 4 7 11 2 18 -5 7 -9 23 -10 36 0 13 -7 28 -14 32 -7
5 -9 9 -4 9 5 0 4 6 -1 13 -5 6 -10 27 -12 46 -1 19 -6 40 -12 47 -7 9 -5 14
8 17 17 4 17 5 0 6 -10 0 -15 6 -12 11 3 6 1 10 -6 10 -7 0 -9 3 -6 7 4 3 1
13 -6 21 -9 13 -9 14 1 8 6 -4 12 -2 12 3 0 6 -6 11 -14 11 -10 0 -14 9 -12
28 1 15 -5 32 -14 39 -12 10 -13 12 -1 13 11 0 10 4 -5 16 -10 8 -12 12 -4 8
13 -7 13 -5 1 9 -7 9 -17 15 -20 12 -4 -2 -8 2 -8 10 0 8 4 12 9 9 4 -3 8 0 8
5 0 6 -7 11 -15 11 -14 0 -20 12 -16 34 1 4 -3 14 -10 22 -6 8 -8 21 -5 30 5
12 2 15 -11 10 -10 -4 -14 -4 -10 0 4 4 1 14 -6 22 -10 13 -9 15 3 8 8 -4 3 2
-12 14 -17 13 -28 31 -28 46 0 14 -4 23 -9 20 -5 -3 -11 1 -15 9 -3 8 0 15 7
15 8 0 7 4 -3 9 -8 6 -17 8 -21 5 -4 -2 -5 5 -2 16 3 12 0 20 -6 20 -7 0 -9
-5 -5 -12 4 -7 3 -8 -5 -4 -6 4 -9 12 -5 17 3 5 1 15 -4 22 -6 7 -10 16 -10
22 0 5 -6 11 -14 13 -9 2 -8 0 2 -8 13 -10 13 -11 0 -7 -9 2 -14 13 -12 27 3
17 0 21 -11 17 -11 -4 -14 0 -10 16 4 18 3 20 -7 7 -10 -12 -11 -11 -7 7 4 20
3 21 -14 12 -11 -5 -18 -6 -17 -2 3 13 -38 73 -46 66 -4 -4 -4 1 0 12 6 15 4
17 -11 12 -16 -7 -16 -5 -4 10 9 11 10 14 2 9 -8 -4 -13 -1 -13 9 0 9 -4 13
-10 10 -6 -3 -10 1 -10 9 0 10 -9 16 -22 16 -19 0 -20 2 -8 10 13 8 13 10 -1
10 -9 0 -21 10 -28 23 -9 18 -11 18 -6 2 4 -15 0 -13 -16 8 -17 22 -24 26 -31
15 -7 -9 -8 -7 -5 9 4 19 2 21 -13 13 -16 -8 -18 -7 -15 9 3 15 0 18 -12 14
-11 -4 -14 -2 -9 5 5 8 2 10 -9 6 -11 -5 -18 0 -22 16 -4 15 -8 18 -13 10 -5
-9 -10 -6 -15 9 -5 17 -10 19 -25 11 -15 -8 -17 -6 -13 13 3 14 2 18 -4 10 -7
-10 -12 -8 -23 7 -11 16 -17 17 -29 7 -8 -7 -12 -7 -9 -2 3 6 0 16 -8 23 -11
10 -14 10 -14 0 0 -8 -5 -6 -11 4 -5 10 -20 23 -32 28 -21 11 -21 11 -3 -4 11
-9 15 -16 8 -16 -7 0 -17 9 -24 20 -7 11 -16 20 -21 20 -4 0 -6 -4 -3 -9 4 -5
-5 -4 -19 2 -14 7 -25 15 -25 20 0 4 -9 7 -20 7 -11 0 -20 6 -20 13 0 8 -4 7
-10 -3 -7 -11 -10 -11 -10 -2 0 7 -4 10 -10 7 -6 -3 -10 -1 -10 5 0 7 -7 10
-15 6 -8 -3 -15 -1 -15 4 0 5 -7 7 -15 4 -8 -4 -17 1 -21 10 -5 12 -10 14 -19
6 -9 -8 -15 -8 -20 0 -3 5 -15 10 -26 10 -10 0 -19 6 -19 13 0 9 -3 8 -9 -2
-5 -7 -11 -9 -14 -4 -3 5 -27 10 -54 12 -26 1 -50 7 -54 13 -4 7 -8 5 -12 -3
-4 -11 -6 -11 -6 -1 -1 18 -411 17 -411 -1 0 -7 -4 -6 -10 3 -6 10 -10 11 -10
3 0 -9 -16 -13 -44 -13 -26 0 -47 -5 -50 -12 -4 -10 -7 -10 -12 -1 -4 8 -11 8
-29 -1 -13 -7 -35 -12 -47 -11 -13 1 -26 -2 -29 -8 -4 -5 -19 -9 -33 -9 -15 0
-29 -5 -32 -10 -4 -6 -10 -5 -15 3 -6 10 -9 11 -9 2 0 -7 -7 -13 -15 -13 -8 0
-15 -6 -15 -12 0 -10 -3 -9 -9 1 -6 10 -10 10 -13 1 -2 -7 -18 -13 -35 -13
-17 -1 -29 -5 -27 -9 3 -5 0 -8 -6 -8 -6 0 -8 -5 -4 -12 5 -9 2 -8 -10 1 -15
13 -18 12 -23 -8 -4 -17 -8 -19 -14 -9 -7 10 -9 10 -9 1 0 -7 -6 -13 -14 -13
-8 0 -17 -6 -19 -12 -4 -9 -6 -8 -7 2 0 10 -6 6 -16 -10 -9 -15 -13 -18 -9 -6
5 17 4 17 -12 5 -10 -8 -24 -21 -30 -29 -11 -13 -14 -13 -23 0 -9 13 -10 13
-11 0 -1 -8 -1 -19 0 -24 1 -5 -5 -4 -13 3 -13 11 -17 10 -25 -10 -5 -13 -10
-19 -10 -13 -1 18 -30 12 -37 -8 -3 -10 -15 -23 -27 -29 l-22 -12 20 24 20 24
-22 -19 c-13 -11 -23 -26 -23 -35 0 -14 -2 -14 -10 -1 -6 10 -10 11 -10 3 0
-7 -5 -13 -11 -13 -5 0 -7 5 -3 12 4 7 3 8 -5 4 -6 -4 -9 -12 -6 -17 4 -5 -1
-12 -9 -15 -9 -3 -13 -11 -9 -18 4 -6 -2 -4 -12 4 -11 9 -16 10 -11 3 7 -12
-5 -18 -27 -14 -5 1 -6 -3 -2 -9 3 -5 1 -11 -4 -11 -6 -1 -15 -3 -21 -4 -5 -1
-16 -3 -22 -4 -9 -1 -8 -4 2 -11 15 -9 13 -11 -12 -14 -7 -1 -12 -9 -10 -19 2
-10 -2 -15 -11 -12 -7 3 -17 -4 -23 -17 -6 -13 -9 -18 -8 -11 2 7 -3 10 -11 6
-8 -3 -12 -10 -8 -16 3 -5 1 -7 -4 -4 -12 8 -24 57 -13 57 4 0 7 7 7 15 0 8
-3 15 -7 15 -8 0 -4 49 4 57 3 4 1 12 -5 20 -6 7 -7 13 -2 13 5 0 10 7 10 15
0 8 -3 15 -7 15 -8 0 -4 49 4 57 3 4 1 12 -5 20 -6 7 -7 13 -2 13 5 0 10 7 10
15 0 8 -3 15 -7 15 -8 0 -4 49 4 57 3 4 1 12 -5 20 -6 7 -7 13 -2 13 5 0 10 7
10 15 0 8 -3 15 -7 15 -8 0 -4 49 4 57 3 4 1 12 -5 20 -6 7 -7 13 -2 13 5 0
10 7 10 15 0 8 -3 15 -7 15 -8 0 -4 49 4 57 3 4 1 12 -5 20 -6 7 -7 13 -2 13
5 0 10 7 10 15 0 8 -3 15 -7 15 -8 0 -4 49 4 57 3 4 1 12 -5 20 -6 7 -7 13 -2
13 5 0 10 7 10 15 0 8 -3 15 -7 15 -8 0 -4 49 4 57 3 4 1 12 -5 20 -6 7 -7 13
-2 13 5 0 10 7 10 15 0 8 -3 15 -7 15 -8 0 -4 49 4 57 3 4 1 12 -5 20 -6 7 -7
13 -2 13 5 0 10 7 10 15 0 8 -3 15 -7 15 -8 0 -4 49 4 57 3 4 1 12 -5 20 -6 7
-7 13 -2 13 5 0 10 7 10 15 0 8 -3 15 -7 15 -8 0 -4 49 4 57 3 4 1 12 -5 20
-6 7 -7 13 -2 13 5 0 10 7 10 15 0 8 -3 15 -7 15 -8 0 -4 49 4 57 3 4 1 12 -5
20 -6 7 -7 13 -2 13 5 0 10 7 10 15 0 8 -3 15 -7 15 -8 0 -4 49 4 57 3 4 1 12
-5 20 -6 7 -7 13 -2 13 5 0 10 7 10 15 0 8 -3 15 -7 15 -8 0 -4 49 4 57 3 4 1
12 -5 20 -6 7 -7 13 -2 13 5 0 10 7 10 15 0 8 -3 15 -6 15 -3 0 -5 125 -3 277
3 267 2 279 -17 294 -11 9 -17 20 -13 25 4 5 -1 2 -11 -6 -16 -11 -18 -11 -15
1 3 12 -38 14 -257 14 -143 0 -291 -1 -328 -3z m631 -57 c-3 -3 -9 2 -12 12
-6 14 -5 15 5 6 7 -7 10 -15 7 -18z m1057 -2165 c161 0 205 -2 205 -12 0 -9 3
-9 10 2 6 10 10 11 10 3 0 -7 9 -13 21 -13 13 0 18 -4 13 -12 -5 -9 -2 -9 9 1
15 12 21 9 19 -10 -1 -3 12 -3 29 -1 16 2 29 0 29 -5 0 -6 12 -15 26 -21 14
-7 23 -8 19 -2 -11 18 7 10 26 -12 12 -13 19 -16 19 -7 0 8 6 4 16 -9 8 -12
21 -22 27 -22 7 0 6 4 -3 10 -9 6 -10 10 -3 10 7 0 17 -9 23 -20 6 -11 16 -20
23 -20 7 0 6 4 -3 10 -8 5 -10 10 -4 10 6 0 19 -10 28 -22 9 -13 14 -17 10
-10 -5 11 -2 11 15 0 12 -7 21 -16 21 -20 0 -5 10 -8 23 -9 12 0 16 -3 10 -6
-20 -7 -15 -22 5 -16 12 3 22 -3 29 -19 7 -13 12 -17 12 -10 1 6 5 12 11 12 5
0 9 -3 9 -7 -5 -28 1 -35 18 -22 9 8 14 9 10 3 -7 -12 27 -54 44 -54 6 0 7 -4
4 -10 -3 -5 2 -10 12 -11 16 0 16 -1 -2 -9 -18 -8 -17 -9 8 -9 20 -1 27 -6 27
-22 0 -13 4 -18 12 -13 8 5 9 2 5 -9 -6 -15 3 -22 25 -18 5 0 7 -2 7 -7 -3
-20 2 -32 13 -26 7 5 8 3 3 -6 -4 -7 -2 -16 6 -21 12 -8 12 -11 -1 -19 -12 -8
-9 -9 11 -6 22 4 26 1 22 -15 -3 -10 0 -19 6 -19 6 0 10 -3 10 -7 -4 -23 2
-43 11 -38 9 6 15 -8 11 -29 -1 -5 5 -3 14 4 13 11 14 10 9 -5 -4 -10 -1 -20
6 -25 7 -4 13 -19 13 -34 0 -14 3 -24 7 -21 4 3 10 -4 13 -15 3 -11 1 -18 -4
-14 -5 3 -9 0 -9 -5 0 -10 13 -15 31 -13 4 1 5 -8 2 -18 -3 -12 0 -20 7 -20
10 0 10 -3 1 -14 -9 -11 -9 -16 0 -22 8 -5 9 -3 4 6 -5 9 -4 11 4 6 6 -4 9
-12 5 -17 -3 -5 2 -22 11 -36 17 -25 17 -26 -1 -19 -17 6 -17 6 -2 -11 9 -10
19 -33 21 -52 3 -19 12 -38 19 -42 11 -7 10 -9 -1 -9 -10 0 -11 -3 -2 -14 8
-10 9 -16 1 -21 -7 -4 -3 -16 11 -33 14 -18 17 -28 9 -30 -9 -3 -9 -7 1 -12
10 -7 10 -12 0 -23 -9 -12 -9 -17 0 -23 8 -5 10 -3 4 7 -6 10 -5 11 3 4 12
-11 16 -53 9 -98 -2 -15 -1 -30 4 -32 4 -3 4 -19 -1 -35 -7 -23 -5 -32 8 -40
11 -6 12 -9 4 -10 -10 0 -9 -4 3 -16 9 -10 13 -20 8 -23 -11 -8 -15 -31 -4
-31 9 0 6 -48 -3 -57 -3 -4 -1 -12 5 -20 6 -7 7 -13 2 -13 -5 0 -10 -7 -10
-15 0 -8 4 -15 9 -15 5 0 4 -9 -2 -20 -6 -11 -7 -20 -2 -20 10 0 8 -48 -2 -57
-3 -4 -1 -12 5 -20 6 -7 7 -13 2 -13 -5 0 -10 -7 -10 -15 0 -8 3 -15 7 -15 8
0 4 -49 -4 -57 -3 -4 -1 -12 5 -20 6 -7 7 -13 2 -13 -5 0 -10 -7 -10 -15 0 -8
3 -15 7 -15 8 0 5 -44 -5 -59 -3 -6 -1 -11 5 -11 6 0 8 -5 3 -12 -4 -7 -9 -22
-10 -32 -2 -11 -8 -25 -14 -32 -7 -8 -7 -14 1 -19 8 -5 8 -11 1 -19 -6 -7 -8
-16 -4 -19 9 -9 11 -57 2 -51 -4 2 -9 -3 -13 -11 -3 -8 0 -15 7 -15 8 0 8 -3
-2 -9 -8 -5 -11 -16 -8 -25 4 -9 2 -16 -2 -16 -5 0 -5 -16 -1 -35 6 -27 4 -37
-7 -44 -18 -10 -23 -53 -8 -63 6 -5 4 -8 -6 -8 -9 0 -16 -6 -16 -12 -3 -45
-14 -93 -23 -96 -6 -2 -8 -8 -4 -13 3 -5 0 -9 -6 -9 -6 0 -8 -5 -5 -10 4 -6
-1 -22 -10 -37 -11 -16 -12 -22 -4 -17 7 4 3 -9 -9 -29 -12 -20 -17 -37 -12
-37 6 0 10 -5 10 -10 0 -6 -6 -9 -12 -8 -8 2 -12 -5 -10 -16 2 -11 -1 -15 -7
-11 -15 9 -14 -8 1 -23 9 -9 8 -12 -6 -12 -9 0 -14 -4 -11 -10 3 -5 1 -10 -5
-10 -6 0 -8 -4 -5 -10 3 -5 1 -10 -5 -10 -7 0 -10 -6 -7 -13 6 -16 -28 -59
-39 -49 -5 4 -2 -2 6 -12 10 -13 10 -17 3 -12 -9 5 -13 1 -13 -13 0 -11 -5
-23 -10 -26 -6 -4 -7 -12 -3 -18 4 -7 -1 -6 -10 2 -15 12 -17 12 -11 -4 6 -14
4 -16 -6 -10 -9 6 -11 4 -6 -4 5 -7 0 -19 -10 -27 -11 -9 -13 -13 -7 -9 9 4
11 1 7 -9 -7 -19 -24 -21 -25 -3 0 6 -6 -4 -14 -23 -7 -19 -17 -34 -23 -33 -6
2 -9 -4 -6 -12 4 -8 -1 -17 -10 -21 -9 -3 -13 -11 -9 -17 4 -6 0 -8 -10 -4
-12 5 -17 1 -17 -13 0 -14 -5 -18 -17 -13 -11 4 -14 3 -9 -5 4 -7 1 -12 -9
-12 -11 0 -15 -5 -11 -15 4 -11 0 -15 -11 -13 -9 2 -22 -7 -28 -19 -7 -13 -15
-20 -20 -15 -4 4 -6 0 -2 -9 7 -21 -11 -39 -31 -32 -10 4 -13 2 -8 -5 4 -7 1
-12 -9 -12 -9 0 -13 -4 -10 -10 3 -5 0 -10 -8 -10 -8 0 -22 -9 -33 -21 -10
-11 -26 -18 -35 -16 -13 3 -16 0 -12 -11 5 -11 2 -14 -10 -9 -11 4 -22 -2 -33
-18 -9 -14 -21 -25 -28 -25 -6 0 -4 5 4 10 17 11 10 13 -14 4 -9 -3 -14 -10
-11 -14 3 -4 -2 -10 -10 -14 -8 -3 -15 0 -15 7 0 8 -4 7 -9 -3 -6 -8 -8 -17
-6 -20 2 -4 -2 -7 -10 -7 -8 0 -11 5 -8 10 3 6 1 7 -5 3 -7 -4 -12 -15 -13
-24 0 -11 -2 -13 -6 -4 -4 10 -8 10 -21 0 -13 -11 -15 -11 -8 2 4 8 0 6 -8 -4
-9 -11 -16 -16 -16 -10 0 5 -5 2 -11 -6 -8 -12 -12 -12 -16 -2 -4 10 -9 10
-24 -4 -10 -9 -25 -14 -34 -10 -9 3 -13 2 -10 -4 6 -9 -16 -15 -39 -11 -4 1
-14 -4 -22 -10 -11 -9 -14 -8 -15 2 0 10 -2 11 -6 2 -2 -7 -20 -13 -39 -13
-23 0 -33 -4 -28 -11 5 -8 1 -8 -13 0 -12 6 -24 6 -29 1 -7 -7 -366 -15 -409
-9 -5 0 -25 0 -44 -1 -25 -1 -31 1 -25 12 6 11 5 11 -8 0 -14 -11 -18 -10 -26
4 -6 10 -12 13 -16 6 -4 -7 -17 -7 -38 -2 -17 5 -35 7 -39 4 -5 -3 -9 -1 -9 3
0 5 -14 10 -32 11 -18 2 -36 8 -40 15 -6 9 -8 9 -8 -1 0 -10 -4 -9 -16 2 -8 9
-20 14 -25 11 -5 -4 -9 0 -9 7 0 9 -3 9 -10 -2 -6 -10 -10 -11 -10 -2 0 6 -9
12 -20 12 -11 0 -20 6 -21 13 0 8 -2 9 -5 0 -3 -7 -14 -2 -30 14 -15 15 -31
22 -41 19 -22 -9 -49 14 -31 26 9 6 5 7 -9 3 -18 -5 -23 -2 -23 12 0 15 -2 16
-10 3 -8 -12 -10 -10 -10 9 0 13 -3 22 -6 18 -11 -10 -42 26 -39 44 2 11 0 19
-4 19 -9 0 -6 48 3 57 3 4 1 12 -5 20 -6 7 -7 13 -2 13 5 0 10 7 10 15 0 8 -3
15 -7 15 -8 0 -4 49 4 57 3 4 1 12 -5 20 -6 7 -7 13 -2 13 5 0 10 7 10 15 0 8
-3 15 -7 15 -8 0 -4 49 4 57 3 4 1 12 -5 20 -6 7 -7 13 -2 13 5 0 10 7 10 15
0 8 -3 15 -7 15 -8 0 -4 49 4 57 3 4 1 12 -5 20 -6 7 -7 13 -2 13 5 0 10 7 10
15 0 8 -3 15 -7 15 -8 0 -4 49 4 57 3 4 1 12 -5 20 -6 7 -7 13 -2 13 5 0 10 7
10 15 0 8 -3 15 -7 15 -8 0 -4 49 4 57 3 4 1 12 -5 20 -6 7 -7 13 -2 13 5 0
10 7 10 15 0 8 -3 15 -7 15 -8 0 -4 49 4 57 3 4 1 12 -5 20 -6 7 -7 13 -2 13
5 0 10 7 10 15 0 8 -3 15 -7 15 -8 0 -4 49 4 57 3 4 1 12 -5 20 -6 7 -8 13 -3
13 5 0 9 289 9 655 0 360 -3 655 -6 655 -7 0 -3 49 5 57 3 4 1 12 -5 20 -6 7
-7 13 -2 13 5 0 10 7 10 15 0 8 -3 15 -7 15 -8 0 -4 49 4 57 3 4 1 12 -5 20
-6 7 -7 13 -2 13 5 0 10 7 10 15 0 8 -3 15 -7 15 -8 0 -5 44 5 59 3 6 1 11 -5
11 -7 0 -7 7 1 23 13 23 13 25 -2 44 -7 7 -6 13 0 17 6 4 6 18 1 37 -8 26 -7
29 6 18 12 -10 13 -9 9 3 -4 9 8 26 29 45 20 16 33 32 30 35 -3 4 0 9 7 14 8
4 10 3 5 -4 -4 -7 -2 -12 3 -12 6 0 11 7 11 15 0 8 6 15 14 15 8 0 18 5 22 12
5 7 3 8 -6 3 -8 -5 -11 -4 -6 3 3 6 15 9 26 7 12 -2 18 0 15 4 -3 5 2 12 11
15 8 3 13 10 9 15 -3 5 0 13 6 17 8 4 9 3 5 -4 -13 -21 8 -12 33 13 13 14 29
25 37 25 8 0 14 5 14 11 0 6 9 9 20 6 10 -3 19 -2 18 2 0 3 0 13 1 21 1 13 2
13 11 0 8 -13 10 -13 10 2 0 9 5 20 12 24 7 4 8 3 4 -4 -10 -16 2 -15 19 2 8
7 11 17 7 22 -4 5 1 2 11 -5 15 -12 17 -11 17 10 0 19 2 21 10 9 9 -13 14 -8
11 12 0 4 8 5 19 3 11 -2 20 0 20 6 0 5 9 9 21 9 13 0 18 4 13 13 -5 8 -2 8 9
-2 9 -7 18 -11 18 -7 1 3 3 11 4 16 1 6 3 13 4 16 0 4 8 1 16 -6 11 -10 15
-10 15 0 0 6 6 10 13 7 6 -2 18 3 25 12 8 9 11 10 7 4 -3 -7 -1 -13 4 -13 6 0
11 5 11 10 0 6 9 10 21 10 12 0 17 4 13 11 -5 8 -1 8 14 0 14 -7 23 -8 27 -1
3 5 15 10 26 10 11 0 18 4 15 8 -3 5 1 9 9 9 8 0 11 -5 8 -11 -4 -6 1 -5 10 2
9 8 21 11 26 8 5 -4 12 -2 16 4 4 6 11 8 16 4 5 -3 102 -5 214 -4z m679 -3058
c3 -5 -1 -9 -9 -9 -8 0 -12 4 -9 9 3 4 7 8 9 8 2 0 6 -4 9 -8z m-1559 -240
c-3 -3 -11 0 -18 7 -9 10 -8 11 6 5 10 -3 15 -9 12 -12z m-735 -212 c0 -5 -2
-10 -4 -10 -3 0 -8 5 -11 10 -3 6 -1 10 4 10 6 0 11 -4 11 -10z"/>
<path d="M3440 6040 c0 -5 5 -10 11 -10 5 0 7 5 4 10 -3 6 -8 10 -11 10 -2 0
-4 -4 -4 -10z"/>
<path d="M2856 5053 c-6 -14 -5 -15 5 -6 7 7 10 15 7 18 -3 3 -9 -2 -12 -12z"/>
<path d="M11903 9492 c-13 -2 -23 -9 -23 -15 0 -7 -4 -6 -10 3 -9 13 -10 13
-11 0 -1 -8 -1 -19 0 -23 1 -5 -3 -6 -9 -2 -6 3 -8 11 -5 16 4 5 4 9 1 9 -3 0
-13 -14 -22 -31 -11 -23 -12 -29 -2 -24 7 4 2 -3 -12 -15 -14 -12 -18 -19 -10
-15 9 4 8 1 -3 -8 -13 -10 -15 -17 -7 -22 8 -5 5 -12 -8 -21 -13 -9 -18 -21
-15 -34 3 -12 0 -20 -8 -20 -7 0 -9 -3 -6 -7 4 -3 -1 -12 -11 -20 -11 -10 -12
-12 -2 -8 10 4 9 2 -2 -8 -21 -16 -24 -31 -5 -22 6 4 3 -1 -7 -9 -11 -9 -16
-16 -11 -16 5 0 0 -7 -11 -16 -10 -8 -13 -13 -7 -9 17 8 4 -26 -16 -43 -13
-11 -13 -12 -1 -6 10 5 9 0 -4 -14 -12 -14 -14 -22 -7 -22 7 0 9 -5 6 -10 -4
-6 -11 -7 -17 -4 -7 5 -9 0 -5 -15 3 -15 0 -24 -9 -28 -8 -3 -13 -12 -10 -20
3 -8 2 -12 -3 -9 -11 7 -23 -22 -15 -35 3 -5 -3 -9 -13 -9 -15 0 -16 -2 -3
-10 13 -8 12 -10 -4 -10 -15 0 -16 -3 -6 -15 10 -12 9 -16 -4 -21 -9 -3 -16
-17 -16 -30 0 -13 -4 -24 -10 -24 -5 0 -10 -9 -10 -20 0 -12 -7 -20 -17 -20
-15 0 -16 -2 -3 -10 11 -7 11 -10 2 -10 -7 0 -10 -4 -7 -10 3 -5 1 -10 -5 -10
-7 0 -10 -7 -6 -15 3 -9 0 -15 -8 -15 -8 0 -16 -9 -19 -20 -3 -13 -1 -18 6
-14 8 5 7 2 0 -7 -7 -7 -13 -21 -13 -30 0 -10 -5 -19 -12 -21 -6 -2 -13 -15
-15 -29 -2 -13 -11 -30 -20 -36 -10 -8 -12 -13 -4 -13 7 0 9 -5 6 -11 -4 -6
-13 -8 -21 -5 -12 4 -12 2 -4 -14 8 -15 6 -21 -11 -31 -17 -9 -19 -13 -8 -20
13 -8 5 -13 -15 -10 -5 1 -6 -8 -3 -19 3 -13 0 -23 -8 -26 -7 -3 -16 -12 -19
-20 -4 -10 -1 -13 7 -9 6 4 5 1 -4 -7 -9 -7 -15 -23 -14 -36 1 -14 -7 -29 -19
-38 -11 -8 -15 -14 -8 -14 10 0 9 -5 -3 -16 -9 -9 -14 -23 -10 -32 5 -13 3
-13 -12 -1 -14 11 -15 12 -9 0 5 -8 3 -17 -5 -22 -11 -7 -11 -9 -1 -9 10 0 10
-3 0 -14 -7 -8 -16 -12 -20 -10 -4 2 -9 0 -12 -5 -4 -5 -1 -13 5 -17 8 -5 9
-3 4 6 -6 9 -4 11 5 5 10 -6 8 -12 -8 -26 -15 -12 -18 -19 -10 -22 10 -4 10
-6 0 -6 -7 -1 -10 -5 -7 -11 3 -5 1 -10 -6 -10 -6 0 -9 -8 -6 -20 5 -21 -15
-44 -29 -32 -4 4 -2 -2 6 -12 10 -13 10 -17 3 -12 -8 4 -13 1 -13 -8 0 -9 -6
-16 -12 -16 -10 0 -9 -3 1 -9 10 -7 9 -11 -5 -22 -11 -8 -19 -21 -19 -29 0 -8
-5 -14 -11 -13 -7 1 -10 -6 -7 -17 3 -12 0 -20 -7 -20 -7 0 -10 -7 -6 -16 3
-8 2 -13 -3 -10 -5 3 -12 -1 -15 -10 -4 -10 -2 -13 6 -8 7 5 8 3 4 -5 -5 -7
-15 -10 -23 -6 -13 4 -14 3 -3 -10 12 -14 7 -20 -14 -16 -5 1 -3 -6 5 -15 12
-15 12 -17 0 -9 -11 6 -13 4 -8 -8 3 -10 3 -17 -1 -17 -4 0 -8 -10 -9 -22 -1
-11 -7 -25 -14 -29 -7 -4 -9 -14 -6 -24 4 -9 3 -14 -3 -10 -6 3 -10 1 -10 -6
0 -6 -8 -18 -17 -26 -10 -8 -12 -12 -5 -8 19 10 14 -2 -10 -26 -13 -12 -18
-19 -11 -15 7 4 6 -5 -3 -24 -9 -16 -19 -30 -23 -30 -4 0 -7 -10 -6 -22 1 -13
-7 -29 -17 -37 -11 -7 -17 -20 -14 -27 3 -8 -1 -17 -9 -20 -8 -4 -12 -11 -8
-17 4 -7 0 -8 -12 -3 -15 5 -16 4 -5 -9 11 -13 8 -19 -11 -17 -3 1 -6 -5 -6
-13 0 -8 5 -11 11 -8 6 4 4 -1 -4 -11 -8 -10 -15 -24 -17 -32 -2 -8 -4 -21 -6
-30 -2 -8 -17 -27 -33 -40 -16 -14 -23 -23 -16 -19 7 4 12 0 12 -9 0 -8 -6
-19 -12 -23 -7 -4 -13 -15 -13 -23 0 -8 -6 -14 -14 -12 -12 3 -12 1 0 -14 9
-12 9 -15 2 -10 -8 4 -13 1 -13 -8 0 -9 -5 -16 -11 -16 -8 0 -7 -6 2 -17 8 -9
10 -14 4 -11 -5 3 -16 0 -23 -8 -10 -11 -10 -14 0 -14 7 -1 3 -6 -10 -13 -17
-10 -20 -15 -10 -25 9 -9 8 -12 -7 -12 -17 0 -18 -2 -5 -10 13 -8 13 -10 -1
-10 -10 0 -16 -7 -15 -17 0 -11 -5 -17 -13 -15 -12 3 -12 1 0 -14 8 -11 9 -15
2 -11 -8 5 -15 -2 -19 -20 -3 -15 -13 -33 -21 -40 -9 -7 -13 -19 -10 -28 4 -8
2 -15 -4 -15 -6 0 -8 -4 -5 -8 3 -5 -2 -21 -9 -36 -8 -16 -12 -32 -9 -37 3 -5
0 -8 -8 -7 -7 2 -12 -3 -10 -9 1 -7 -3 -13 -9 -13 -5 0 -7 -4 -4 -10 3 -5 1
-10 -5 -10 -7 0 -10 -7 -6 -15 3 -9 -3 -19 -14 -25 -21 -11 -28 -35 -7 -25 6
4 3 -1 -7 -9 -11 -9 -16 -16 -11 -16 5 0 0 -7 -11 -16 -10 -8 -13 -13 -7 -9 9
4 11 1 7 -9 -3 -9 -14 -16 -23 -16 -13 0 -13 -2 -2 -9 11 -7 10 -11 -5 -20
-11 -6 -13 -11 -6 -11 10 0 10 -3 0 -14 -7 -8 -16 -12 -20 -10 -4 2 -9 0 -12
-5 -4 -5 -1 -13 5 -17 8 -5 9 -3 4 6 -6 9 -4 11 5 5 10 -6 8 -12 -9 -27 -13
-10 -18 -18 -11 -18 7 0 3 -9 -10 -20 -15 -13 -18 -20 -9 -20 10 -1 8 -4 -4
-11 -12 -7 -16 -17 -11 -32 6 -22 6 -22 -10 -2 -15 18 -15 18 -9 1 4 -12 0
-22 -11 -28 -14 -8 -15 -12 -5 -24 7 -8 8 -14 3 -13 -21 4 -28 -2 -14 -11 10
-6 11 -10 3 -10 -7 0 -13 -7 -13 -15 0 -8 -5 -15 -11 -15 -5 0 -7 -4 -4 -10 3
-5 1 -10 -5 -10 -7 0 -10 -7 -6 -15 3 -9 -3 -19 -14 -25 -21 -11 -28 -35 -7
-25 6 4 3 -1 -7 -9 -11 -9 -16 -16 -11 -16 5 0 0 -7 -11 -16 -10 -8 -12 -12
-4 -8 10 5 8 -1 -5 -16 -13 -15 -15 -21 -5 -16 8 4 6 0 -5 -9 -11 -8 -20 -23
-20 -33 0 -9 -6 -16 -12 -15 -7 2 -13 -1 -13 -5 0 -4 6 -14 13 -21 6 -7 8 -12
2 -11 -22 5 -27 -1 -15 -15 11 -13 10 -14 -5 -9 -12 5 -16 4 -12 -3 4 -6 0
-14 -9 -17 -13 -5 -14 -9 -3 -22 7 -8 8 -14 3 -12 -5 2 -9 0 -9 -4 0 -4 -9
-14 -20 -23 -11 -9 -14 -13 -6 -9 9 5 12 3 7 -4 -4 -7 -15 -12 -24 -13 -14 0
-13 -2 3 -9 11 -5 14 -9 7 -9 -7 -1 -10 -6 -7 -11 4 -6 3 -10 -2 -9 -20 3 -27
-2 -13 -11 10 -6 11 -10 3 -10 -7 0 -13 -7 -13 -15 0 -8 -5 -15 -11 -15 -5 0
-7 -4 -4 -10 3 -5 1 -10 -5 -10 -7 0 -10 -7 -6 -15 3 -9 -3 -19 -14 -25 -21
-11 -28 -35 -7 -25 6 4 3 -1 -7 -9 -11 -9 -16 -16 -11 -16 5 0 0 -7 -11 -16
-10 -8 -12 -13 -4 -9 10 4 10 2 -2 -8 -13 -10 -15 -16 -6 -25 11 -11 1 -17
-23 -14 -4 1 -4 -8 -1 -20 4 -17 2 -20 -12 -15 -14 5 -15 3 -6 -13 8 -15 6
-22 -12 -34 -13 -10 -17 -16 -9 -16 9 0 5 -8 -9 -20 -15 -13 -18 -20 -9 -20
10 -1 8 -4 -4 -11 -12 -7 -16 -17 -11 -32 6 -22 6 -22 -9 -2 -16 20 -16 20
-11 -1 4 -14 0 -23 -11 -28 -14 -5 -15 -9 -4 -22 7 -8 8 -14 3 -13 -21 4 -28
-2 -14 -11 10 -6 11 -10 3 -10 -7 0 -13 -7 -13 -15 0 -8 -5 -15 -11 -15 -5 0
-7 -4 -4 -10 3 -5 1 -10 -5 -10 -7 0 -10 -7 -6 -15 3 -9 -3 -19 -15 -26 -16
-8 -18 -13 -8 -25 9 -11 8 -14 -5 -14 -10 0 -14 -4 -11 -10 3 -5 1 -10 -6 -10
-7 0 -10 -3 -6 -6 3 -4 -2 -14 -11 -23 -10 -9 -11 -11 -3 -6 12 8 12 7 3 -12
-7 -12 -17 -24 -24 -26 -10 -4 -10 -6 0 -6 10 -1 10 -4 0 -15 -7 -8 -17 -11
-23 -8 -5 3 -4 -1 3 -10 10 -13 10 -17 -4 -22 -11 -4 -14 -13 -11 -27 5 -17 3
-18 -9 -8 -12 10 -13 9 -8 -6 5 -11 4 -16 -3 -12 -5 3 -17 -10 -27 -29 -11
-24 -12 -33 -4 -29 7 4 2 -3 -12 -15 -14 -12 -18 -19 -10 -15 8 4 6 -1 -4 -9
-11 -9 -14 -16 -7 -16 7 0 9 -5 6 -11 -4 -6 -14 -8 -22 -4 -13 4 -14 3 -3 -10
10 -12 9 -15 -6 -16 -11 0 -14 -3 -7 -5 7 -3 9 -12 6 -20 -3 -8 0 -14 6 -14 6
0 11 -4 11 -10 0 -5 -8 -7 -17 -4 -10 3 -6 -2 10 -11 26 -15 39 -32 15 -20 -7
4 -5 0 6 -9 11 -9 16 -22 12 -31 -3 -9 -2 -14 3 -11 5 3 14 -1 21 -9 10 -12 9
-15 -6 -15 -17 0 -17 -1 1 -14 11 -8 23 -12 27 -10 4 3 5 -2 2 -10 -4 -9 -1
-16 6 -16 10 0 10 -3 1 -14 -9 -11 -8 -18 4 -30 9 -9 21 -14 26 -11 5 4 6 -1
3 -9 -3 -9 1 -22 9 -31 14 -13 154 -15 1225 -15 1066 0 1211 -2 1216 -15 3 -8
1 -15 -3 -15 -5 0 -5 -15 -1 -34 4 -19 4 -40 -1 -47 -4 -7 -3 -19 3 -26 7 -9
7 -13 0 -13 -6 0 -7 -13 -2 -34 4 -19 4 -40 -1 -47 -4 -7 -3 -19 3 -26 7 -9 7
-13 0 -13 -6 0 -7 -13 -2 -34 4 -19 4 -40 -1 -47 -4 -7 -3 -19 3 -26 6 -8 6
-13 1 -13 -5 0 -10 -7 -10 -15 0 -8 4 -15 9 -15 5 0 4 -9 -2 -20 -8 -14 -8
-20 0 -20 8 0 8 -6 0 -20 -8 -14 -8 -20 0 -20 8 0 8 -6 0 -20 -8 -14 -8 -20 0
-20 8 0 8 -6 0 -20 -8 -14 -8 -20 0 -20 8 0 8 -6 0 -20 -8 -14 -8 -20 0 -20 8
0 8 -6 0 -20 -8 -14 -8 -20 0 -20 8 0 8 -6 0 -20 -8 -14 -8 -20 0 -20 8 0 8
-6 0 -20 -8 -14 -8 -20 0 -20 8 0 8 -6 0 -20 -8 -14 -8 -20 0 -20 8 0 8 -6 0
-20 -8 -14 -8 -20 0 -20 8 0 8 -6 0 -20 -8 -14 -8 -20 0 -20 8 0 8 -6 0 -20
-8 -14 -8 -20 0 -20 8 0 8 -6 0 -20 -8 -14 -8 -20 0 -20 8 0 8 -6 0 -20 -8
-14 -8 -20 0 -20 8 0 8 -6 0 -20 -6 -11 -7 -20 -2 -20 10 0 8 -48 -2 -57 -3
-4 -1 -12 5 -20 6 -7 7 -13 2 -13 -5 0 -7 -16 -5 -35 l4 -34 253 -3 c186 -2
255 0 264 9 7 8 7 14 0 18 -7 5 -6 11 2 21 9 11 9 14 0 14 -9 0 -9 5 -1 20 6
11 7 20 2 20 -10 0 -8 48 2 57 3 4 1 12 -5 20 -9 10 -8 13 1 13 9 0 9 4 2 13
-7 8 -7 18 -2 27 5 9 5 19 -2 27 -6 8 -6 13 -1 13 5 0 10 7 10 15 0 8 -4 15
-9 15 -5 0 -4 9 2 20 6 11 7 20 3 20 -9 0 -8 88 1 97 3 4 1 12 -5 20 -6 7 -8
13 -3 13 5 0 9 16 9 35 0 19 -4 35 -8 35 -4 0 -3 9 3 20 6 11 7 20 2 20 -10 0
-8 48 2 57 3 4 1 12 -5 20 -9 10 -8 13 1 13 9 0 9 4 2 13 -7 8 -7 18 -2 27 5
9 5 19 -2 27 -6 8 -6 13 -1 13 5 0 10 7 10 15 0 8 -4 15 -9 15 -5 0 -4 9 2 20
6 11 7 20 3 20 -9 0 -8 88 1 97 3 4 1 12 -5 20 -6 7 -8 13 -3 13 5 0 9 16 9
35 0 19 -4 35 -8 35 -4 0 -3 9 3 20 6 11 7 20 2 20 -10 0 -8 48 2 57 3 4 1 12
-5 20 -9 9 -8 13 0 13 6 0 10 6 8 13 -1 9 106 13 506 15 l507 2 0 250 0 250
-142 1 c-180 1 -243 -2 -254 -14 -4 -4 -99 -7 -211 -7 -146 0 -202 -3 -197
-11 5 -8 1 -8 -14 0 -14 7 -23 8 -27 1 -10 -15 -178 -13 -172 3 2 6 0 22 -4
35 -5 12 -5 22 0 22 4 0 8 7 8 15 0 8 -4 15 -9 15 -5 0 -4 9 2 20 6 11 7 20 3
20 -9 0 -8 88 1 97 3 4 1 12 -5 20 -6 7 -8 13 -3 13 5 0 9 16 9 35 0 19 -4 35
-8 35 -4 0 -3 9 3 20 6 11 7 20 2 20 -10 0 -8 48 2 57 3 4 1 12 -5 20 -9 10
-8 13 1 13 9 0 9 4 2 13 -7 8 -7 18 -2 27 5 9 5 19 -2 27 -6 8 -6 13 -1 13 5
0 10 7 10 15 0 8 -4 15 -9 15 -5 0 -4 9 2 20 6 11 7 20 3 20 -9 0 -8 88 1 97
3 4 1 12 -5 20 -6 7 -8 13 -3 13 5 0 9 16 9 35 0 19 -4 35 -8 35 -4 0 -3 9 3
20 6 11 7 20 2 20 -10 0 -8 48 2 57 3 4 1 12 -5 20 -9 10 -8 13 1 13 9 0 9 4
2 13 -7 8 -7 18 -2 27 5 9 5 19 -2 27 -7 9 -7 13 2 13 9 0 9 4 2 13 -7 8 -7
18 -2 27 5 9 5 19 -2 27 -7 9 -7 13 2 13 9 0 9 4 2 13 -7 8 -7 18 -2 27 5 9 5
19 -2 27 -6 8 -6 13 -1 13 5 0 10 7 10 15 0 8 -4 15 -9 15 -5 0 -4 9 2 20 6
11 7 20 3 20 -9 0 -8 88 1 97 3 4 1 12 -5 20 -6 7 -7 13 -3 13 5 0 8 20 6 45
l-4 46 -85 -2 c-65 -1 -83 -5 -79 -15 4 -10 -1 -11 -18 -4 -13 5 -26 7 -28 5
-2 -2 -42 -5 -88 -6 -47 -1 -87 -5 -90 -10 -3 -4 -31 -9 -63 -10 -32 -1 -61
-7 -64 -12 -3 -6 -1 -7 5 -3 7 4 12 2 12 -3 0 -6 -4 -11 -9 -11 -5 0 -11 -11
-13 -25 -3 -14 -1 -25 4 -25 5 0 4 -9 -2 -20 -8 -14 -8 -20 0 -20 8 0 8 -6 0
-20 -8 -14 -8 -20 0 -20 8 0 8 -6 0 -20 -8 -14 -8 -20 0 -20 8 0 8 -6 0 -20
-8 -14 -8 -20 0 -20 8 0 8 -6 0 -20 -8 -14 -8 -20 0 -20 8 0 8 -6 0 -20 -8
-14 -8 -20 0 -20 8 0 8 -6 0 -20 -8 -14 -8 -20 0 -20 8 0 8 -6 0 -20 -8 -14
-8 -20 0 -20 8 0 8 -6 0 -20 -8 -14 -8 -20 0 -20 8 0 8 -6 0 -20 -8 -14 -8
-20 0 -20 8 0 8 -6 0 -20 -8 -14 -8 -20 0 -20 8 0 8 -6 0 -20 -8 -14 -8 -20 0
-20 8 0 8 -6 0 -20 -8 -14 -8 -20 0 -20 8 0 8 -6 0 -20 -8 -14 -8 -20 0 -20 8
0 8 -6 0 -20 -8 -14 -8 -20 0 -20 8 0 8 -6 0 -20 -8 -14 -8 -20 0 -20 8 0 8
-6 0 -20 -8 -14 -8 -20 0 -20 8 0 8 -6 0 -20 -8 -14 -8 -20 0 -20 8 0 8 -6 0
-20 -8 -14 -8 -20 0 -20 8 0 8 -6 0 -20 -8 -14 -8 -20 0 -20 8 0 8 -6 0 -20
-8 -14 -8 -20 0 -20 8 0 8 -6 0 -20 -8 -14 -8 -20 0 -20 8 0 8 -6 0 -20 -6
-11 -7 -20 -2 -20 10 0 8 -48 -2 -57 -3 -4 -1 -12 5 -20 7 -8 8 -13 1 -13 -6
0 -7 -13 -2 -34 4 -19 4 -40 -1 -47 -4 -7 -3 -19 3 -26 7 -9 7 -13 0 -13 -6 0
-7 -13 -2 -34 4 -19 4 -40 -1 -47 -4 -7 -3 -19 3 -26 7 -9 7 -13 0 -13 -6 0
-7 -13 -2 -34 4 -19 5 -37 2 -40 -2 -3 -5 -16 -6 -28 -1 -21 -7 -23 -56 -26
-30 -2 -60 -8 -68 -14 -10 -9 -16 -8 -22 1 -5 9 -9 9 -11 2 -3 -7 -66 -11
-187 -11 -151 -1 -183 -4 -178 -15 4 -11 0 -12 -19 -5 -15 6 -27 6 -30 0 -3
-6 -15 -6 -29 0 -13 5 -26 6 -29 3 -3 -3 -65 -4 -136 -4 -102 2 -131 -1 -131
-11 0 -10 -2 -10 -9 1 -5 7 -14 10 -20 7 -6 -4 -9 -10 -7 -14 2 -4 -86 -6
-196 -4 -161 2 -198 0 -192 -10 6 -11 5 -11 -8 0 -11 9 -18 10 -23 2 -4 -6
-73 -10 -191 -10 -132 0 -183 -3 -178 -11 4 -8 0 -8 -15 0 -14 8 -21 8 -21 1
0 -6 -48 -10 -132 -10 -72 0 -128 3 -125 7 4 3 -1 12 -11 20 -9 8 -11 12 -4 8
11 -6 17 7 13 29 -1 5 5 3 14 -4 13 -11 14 -10 9 5 -5 13 -4 16 4 11 8 -5 10
-2 6 8 -3 9 -2 16 4 16 14 0 35 57 26 72 -6 10 -4 10 9 -1 15 -12 17 -11 17 3
0 9 6 16 13 16 9 0 8 3 -2 9 -17 11 4 25 22 15 8 -5 8 -2 -2 9 -12 15 -11 17
3 17 9 0 15 6 13 13 -1 6 3 11 10 10 7 -2 10 4 7 12 -4 8 1 17 10 21 9 3 16
10 16 16 0 5 -6 6 -12 2 -8 -4 -10 -3 -5 2 8 9 12 10 39 13 6 0 3 8 -8 16 -18
14 -18 14 3 10 13 -2 22 -1 22 3 -3 22 2 32 14 26 8 -5 8 -2 -2 9 -11 14 -11
17 0 18 8 1 18 1 22 0 4 -1 3 8 -3 19 -8 14 -8 20 0 20 6 0 8 5 5 10 -4 6 -1
9 7 8 8 -2 13 6 12 22 -2 23 -1 23 12 5 14 -19 14 -19 12 5 -2 18 1 24 12 22
12 -3 12 -1 3 9 -10 9 -8 18 7 39 11 15 16 31 12 35 -4 5 -1 5 6 1 8 -5 12 0
12 14 0 12 4 19 9 16 5 -3 12 1 15 10 3 8 2 12 -4 9 -6 -3 -10 -2 -10 3 0 6 7
13 16 16 8 3 12 10 9 16 -3 5 -1 10 4 10 6 0 10 6 8 13 -1 6 4 11 12 9 12 -3
12 0 2 12 -11 13 -10 17 3 22 9 3 16 15 16 25 0 10 5 19 11 19 7 0 9 9 6 21
-4 16 -3 18 8 9 11 -10 13 -8 10 9 -2 12 1 21 6 21 6 0 7 5 4 10 -3 6 -1 10 5
10 7 0 10 6 7 14 -3 8 3 23 13 34 10 11 16 23 13 26 -4 3 2 6 12 6 14 0 15 3
6 14 -10 12 -8 17 8 26 12 6 28 24 37 41 12 23 12 29 2 24 -7 -4 -2 3 12 15
14 12 18 19 10 15 -10 -4 -9 -2 2 8 12 9 14 17 8 25 -6 7 -7 10 -4 7 12 -8 36
25 30 41 -4 10 -2 13 6 8 7 -5 9 -2 5 9 -4 10 0 17 11 19 10 2 17 13 17 28 0
16 5 24 14 22 12 -3 12 -1 0 14 -8 10 -9 15 -3 11 13 -7 48 68 39 83 -4 6 -1
9 6 8 6 -2 16 11 22 27 5 17 15 33 20 37 6 3 12 17 14 30 2 13 9 28 16 33 6 6
12 17 12 25 0 8 5 14 11 13 6 -1 10 8 9 20 -2 26 15 58 27 51 4 -3 8 2 8 10 0
9 5 16 11 16 6 0 8 7 5 15 -4 10 2 19 16 24 15 5 18 10 9 15 -9 6 -9 11 0 22
6 7 15 11 20 8 5 -3 6 3 2 12 -5 13 -3 15 8 9 11 -7 11 -5 -1 10 -12 15 -12
17 -1 10 11 -6 13 -3 9 13 -4 12 -2 20 3 16 5 -3 9 0 9 6 0 6 4 9 8 6 5 -3 9
1 9 9 0 8 -5 12 -11 9 -6 -3 -3 1 7 9 9 8 17 21 17 30 0 9 5 19 11 22 6 4 8
13 5 21 -3 8 0 13 7 11 7 -1 11 4 9 11 -1 6 2 12 8 12 6 0 9 5 8 12 -2 7 4 12
12 13 8 0 14 8 12 17 -3 22 16 70 26 64 5 -3 9 1 9 9 0 8 -5 12 -11 9 -6 -3
-2 2 8 10 11 9 16 16 11 16 -5 0 0 7 11 16 10 8 12 13 4 9 -10 -4 -10 -2 2 8
14 11 15 16 5 27 -7 7 -7 10 -1 7 6 -4 17 6 23 20 10 22 14 24 22 12 7 -10 8
-8 7 11 -2 20 1 25 17 23 11 -1 14 0 8 3 -18 8 -16 33 2 40 11 5 13 10 5 19
-8 9 -5 14 12 19 19 5 20 8 8 15 -12 9 -12 11 3 17 9 3 17 12 17 19 0 8 7 21
16 29 9 9 11 16 4 16 -6 0 -8 5 -5 10 4 6 10 8 14 5 5 -2 11 9 15 26 4 21 10
28 18 23 10 -6 10 -5 0 8 -10 13 -10 17 3 22 8 3 15 15 15 26 0 11 6 20 14 20
8 0 18 5 21 10 4 6 3 10 -2 9 -22 -4 -23 3 -2 22 13 11 19 18 13 15 -6 -3 -11
1 -11 9 0 8 4 12 9 9 5 -4 12 3 15 15 3 11 9 18 14 15 5 -3 6 2 3 10 -3 9 -2
16 4 16 5 0 9 8 8 18 0 9 4 16 11 15 7 -2 10 3 7 11 -3 8 6 25 20 37 20 18 23
25 14 36 -6 8 -7 13 -2 12 21 -4 26 2 14 16 -11 13 -10 14 6 9 10 -4 15 -3 11
1 -4 5 3 15 15 23 13 8 16 11 5 8 -15 -5 -16 -2 -7 14 6 11 16 20 22 20 7 0 6
5 -2 15 -10 12 -10 15 3 15 24 0 39 24 24 39 -6 7 -7 12 -2 11 22 -5 29 1 15
10 -10 6 -11 10 -2 10 6 0 12 7 12 15 0 8 5 15 11 15 5 0 7 5 4 10 -3 6 -1 10
5 10 7 0 9 7 6 15 -3 9 1 18 8 21 8 3 17 12 20 20 4 10 1 13 -7 9 -6 -4 -4 0
6 8 9 8 17 22 17 31 0 9 8 16 18 16 14 0 15 2 2 10 -12 8 -12 10 5 10 15 0 17
2 6 9 -11 7 -10 11 5 20 11 6 13 11 6 11 -10 0 -10 3 0 14 7 8 18 11 23 8 6
-3 5 1 -2 9 -9 11 -7 19 7 36 9 12 21 19 25 15 4 -4 5 2 3 13 -1 11 3 20 10
21 6 1 15 2 18 3 4 0 0 9 -7 18 -8 9 -9 14 -3 10 7 -4 15 0 18 9 4 10 2 13 -7
9 -6 -4 -1 3 13 15 14 12 18 19 10 15 -13 -6 -13 -5 0 7 8 7 15 20 15 28 0 8
5 14 11 13 6 -1 11 4 11 12 0 8 -5 12 -11 8 -6 -3 1 5 15 18 14 13 25 33 25
44 -1 11 6 27 14 35 9 8 11 13 5 10 -6 -3 3 8 20 23 16 16 24 26 18 22 -8 -4
-13 0 -13 9 0 8 6 19 13 23 6 4 12 15 12 23 0 8 6 14 14 12 12 -3 12 -1 0 14
-9 12 -9 15 -1 10 8 -5 12 -1 12 13 0 10 5 21 12 23 6 2 13 15 15 29 2 13 11
29 19 36 9 7 14 19 11 27 -4 9 -2 18 4 21 5 4 6 11 3 17 -4 6 3 5 16 -2 20
-11 21 -10 9 12 -11 21 -11 22 4 10 14 -12 16 -11 12 7 -2 12 1 21 6 21 6 0 7
5 4 10 -3 6 -1 10 5 10 7 0 9 7 6 15 -3 9 1 18 9 21 8 4 15 14 15 25 0 10 8
23 18 28 10 6 12 11 4 11 -7 0 -2 11 13 25 27 28 34 43 12 29 -7 -5 -5 -2 4 7
10 9 15 20 11 25 -4 5 -6 8 -3 7 5 -3 31 24 31 32 0 3 -6 3 -12 -1 -7 -4 -3 3
10 15 24 24 29 36 10 26 -7 -4 -5 0 4 8 10 8 15 17 11 20 -3 4 -1 7 5 7 7 0
11 6 10 13 -2 6 3 11 10 9 6 -1 12 5 12 14 0 9 -5 12 -12 8 -9 -5 -9 -3 1 9 7
9 17 14 23 11 5 -3 2 11 -6 31 -9 21 -16 39 -16 41 0 2 -7 4 -15 4 -9 0 -20
10 -25 23 -5 12 -9 16 -9 9 -1 -7 -6 -10 -11 -7 -6 4 -8 10 -5 15 3 5 1 11 -5
15 -5 3 -10 1 -10 -4 0 -6 -5 -11 -11 -11 -5 0 -7 5 -4 10 4 6 -6 10 -22 10
-22 0 -25 2 -13 10 11 7 6 10 -20 11 -19 0 -29 3 -22 6 6 2 12 9 12 14 0 4 -7
5 -17 2 -10 -4 -14 -2 -10 4 5 7 0 9 -12 6 -10 -3 -22 0 -25 6 -5 7 -1 8 11 4
10 -3 15 -3 11 1 -3 4 -12 8 -20 10 -7 1 -19 5 -25 9 -7 5 -18 5 -25 1 -7 -5
-9 -2 -5 8 4 12 1 14 -13 11 -12 -3 -30 6 -49 26 -27 28 -44 31 -23 5 4 -5 0
-2 -9 7 -15 16 -89 28 -136 21z m117 -1096 c0 -3 -4 -8 -10 -11 -5 -3 -10 -1
-10 4 0 6 5 11 10 11 6 0 10 -2 10 -4z m-806 -1542 c3 -8 2 -12 -4 -9 -6 3
-10 10 -10 16 0 14 7 11 14 -7z"/>
<path d="M12420 9261 c0 -6 4 -13 10 -16 6 -3 7 1 4 9 -7 18 -14 21 -14 7z"/>
<path d="M6710 9139 c0 -7 -19 -10 -50 -7 -28 1 -50 0 -50 -3 0 -3 -10 -5 -22
-4 -13 1 -26 -3 -30 -9 -5 -7 -8 -6 -8 4 0 11 -2 12 -8 3 -4 -7 -33 -13 -64
-15 -37 -2 -53 -6 -48 -13 6 -7 -5 -9 -31 -7 -28 3 -39 0 -39 -9 0 -11 -3 -11
-10 1 -9 13 -13 12 -28 -6 -10 -11 -25 -20 -35 -18 -9 1 -17 -2 -17 -7 0 -5
-3 -8 -7 -8 -5 1 -10 0 -13 -1 -9 -3 -44 -10 -62 -12 -9 -1 -14 -6 -12 -10 3
-4 -6 -8 -20 -8 -13 0 -27 -6 -29 -12 -4 -10 -6 -10 -6 1 -1 9 -7 6 -18 -8
-10 -12 -30 -22 -46 -23 -18 -2 -26 -7 -22 -16 2 -7 1 -11 -4 -8 -12 8 -63
-19 -54 -27 3 -4 -1 -7 -11 -7 -11 0 -15 -4 -10 -12 5 -9 2 -9 -9 1 -15 12
-21 9 -18 -11 0 -5 -6 -8 -14 -8 -8 0 -15 -5 -15 -11 0 -8 -6 -7 -17 2 -10 7
-15 10 -11 5 10 -13 -28 -49 -43 -40 -9 5 -10 2 -5 -11 6 -16 4 -16 -11 -4
-10 7 -15 10 -11 5 11 -12 -20 -39 -37 -32 -12 4 -13 2 -5 -13 8 -16 7 -18 -9
-14 -10 3 -22 -1 -26 -8 -5 -8 -4 -10 3 -5 7 4 12 3 12 -2 0 -6 -11 -13 -25
-16 -14 -4 -23 -11 -20 -16 3 -6 1 -10 -5 -10 -6 0 -8 -4 -5 -10 3 -5 -1 -10
-9 -10 -9 0 -16 -5 -16 -11 0 -5 -4 -7 -10 -4 -6 3 -7 -1 -4 -10 5 -11 2 -14
-10 -9 -9 4 -16 3 -15 -2 3 -19 -1 -34 -11 -34 -5 0 -7 8 -4 18 3 9 -4 1 -14
-18 -11 -19 -18 -38 -16 -42 3 -4 -5 -5 -17 -3 -16 3 -19 0 -15 -12 5 -11 2
-14 -9 -9 -9 3 -13 2 -10 -4 3 -6 1 -10 -4 -10 -6 0 -10 -6 -8 -12 1 -7 -4
-12 -10 -11 -7 2 -13 -2 -13 -8 0 -5 -5 -7 -12 -3 -7 5 -9 2 -5 -9 3 -9 0 -18
-9 -21 -9 -3 -12 -11 -8 -17 4 -8 3 -9 -5 -5 -7 5 -9 13 -4 20 4 7 0 3 -10 -8
-10 -10 -16 -25 -13 -32 3 -7 -3 -18 -12 -26 -16 -12 -16 -11 -2 7 15 20 14
20 -8 1 -23 -20 -30 -32 -12 -21 6 3 10 2 10 -2 0 -5 -9 -14 -21 -21 -17 -11
-18 -16 -8 -28 10 -12 9 -13 -6 -7 -14 5 -17 3 -12 -10 4 -10 2 -14 -7 -11 -7
3 -13 -1 -14 -8 -3 -38 -22 -79 -33 -72 -5 3 -9 -2 -9 -10 0 -9 -4 -16 -10
-16 -5 0 -10 -9 -10 -20 0 -10 -10 -29 -22 -41 -13 -12 -16 -19 -8 -15 9 5 9
2 -2 -7 -10 -8 -15 -17 -11 -20 3 -4 0 -13 -7 -22 -7 -8 -9 -15 -5 -15 3 0 -3
-16 -15 -35 -20 -32 -20 -35 -3 -29 14 4 13 2 -3 -8 -13 -8 -20 -22 -19 -36 1
-13 -7 -29 -17 -37 -15 -9 -16 -14 -6 -18 11 -4 11 -6 0 -6 -7 -1 -10 -5 -7
-11 3 -5 2 -10 -3 -10 -5 0 -8 -11 -7 -25 2 -14 -2 -25 -8 -25 -5 0 -7 -3 -4
-7 4 -3 2 -12 -4 -20 -9 -10 -8 -13 2 -13 10 0 10 -3 1 -12 -7 -7 -12 -23 -12
-36 0 -15 -4 -21 -12 -16 -8 5 -9 2 -5 -9 4 -10 1 -17 -6 -17 -8 0 -6 -4 3
-10 11 -7 11 -10 2 -10 -7 0 -10 -4 -7 -10 3 -5 2 -10 -3 -10 -5 0 -8 -13 -6
-30 2 -19 -1 -30 -9 -30 -8 0 -7 -4 3 -10 11 -7 11 -10 2 -10 -7 0 -11 -4 -8
-9 4 -5 0 -12 -6 -14 -10 -4 -10 -6 0 -6 10 -1 10 -6 2 -21 -6 -11 -7 -20 -3
-20 9 0 8 -88 -1 -97 -3 -4 -1 -12 5 -20 6 -7 8 -13 3 -13 -5 0 -9 -16 -9 -35
0 -19 4 -35 8 -35 4 0 3 -9 -3 -20 -6 -11 -7 -20 -3 -20 9 0 8 -88 -1 -97 -3
-4 -1 -12 5 -20 6 -7 8 -13 3 -13 -5 0 -9 -16 -9 -35 0 -19 2 -35 5 -35 3 0 5
-33 6 -73 0 -77 4 -98 18 -109 6 -4 6 -12 0 -20 -12 -15 -12 -28 0 -46 4 -8
10 -30 11 -50 2 -20 4 -37 5 -37 1 0 3 -15 5 -34 2 -19 10 -38 17 -42 7 -5 9
-9 4 -9 -5 0 -4 -6 1 -12 6 -7 9 -23 8 -35 -1 -12 2 -20 7 -17 4 3 8 -6 8 -20
0 -14 5 -26 11 -26 5 0 7 -4 4 -10 -3 -5 0 -10 7 -10 10 0 9 -3 -2 -10 -12 -8
-12 -10 3 -16 9 -3 14 -11 11 -16 -4 -6 0 -14 7 -19 10 -6 11 -9 2 -9 -7 0
-13 -5 -13 -10 0 -6 5 -9 12 -8 6 2 14 -5 16 -16 3 -13 0 -16 -9 -11 -8 5 -10
4 -5 -3 4 -7 13 -12 21 -12 8 0 14 -8 14 -17 1 -10 2 -26 3 -37 1 -18 2 -18
16 0 12 15 14 16 9 2 -3 -9 1 -22 9 -29 11 -9 12 -15 3 -25 -9 -11 -8 -14 6
-14 12 0 16 -6 12 -20 -3 -11 -1 -18 4 -14 5 3 9 0 9 -6 0 -6 4 -9 9 -6 5 3
11 -1 14 -9 4 -10 1 -12 -11 -8 -14 5 -13 2 3 -14 11 -11 24 -18 29 -15 5 2 7
-1 4 -8 -2 -7 7 -24 20 -37 15 -15 22 -31 19 -43 -3 -11 -2 -19 2 -18 19 2 31
-3 26 -12 -3 -5 1 -10 9 -10 9 0 23 -12 32 -26 15 -22 15 -27 3 -36 -11 -8
-10 -9 4 -4 15 5 22 -4 18 -27 0 -4 2 -6 6 -6 23 4 43 -2 38 -11 -3 -5 -2 -10
4 -10 5 0 13 -9 16 -21 5 -15 10 -17 20 -9 11 9 13 6 11 -13 -2 -20 1 -24 18
-20 14 3 17 2 9 -4 -9 -6 -2 -13 22 -22 32 -11 40 -21 36 -44 -1 -5 3 -6 9 -2
6 3 7 12 4 18 -4 7 2 3 13 -8 11 -11 18 -24 15 -30 -3 -5 3 -3 13 5 11 9 16
10 11 3 -4 -9 -1 -13 10 -13 13 0 14 -3 5 -14 -10 -12 -9 -14 6 -12 9 2 26 -7
36 -18 10 -12 16 -15 12 -8 -10 20 13 13 29 -9 8 -12 19 -18 25 -14 6 3 14 -1
17 -9 3 -9 10 -16 16 -16 5 0 6 6 2 13 -4 6 4 2 18 -10 13 -13 30 -23 36 -23
7 0 12 -5 12 -11 0 -5 4 -8 9 -4 5 3 16 -2 24 -10 19 -18 31 -20 21 -2 -4 6 1
5 12 -4 27 -23 54 -31 54 -16 1 7 7 1 14 -12 10 -18 15 -20 19 -10 4 10 6 10
6 2 1 -7 10 -13 21 -13 11 0 20 -6 20 -12 0 -9 4 -8 10 2 6 10 10 11 10 3 0
-7 11 -13 25 -13 14 0 25 -6 25 -12 0 -9 4 -8 11 2 8 11 12 12 16 3 3 -8 24
-13 54 -13 27 0 49 -4 49 -10 0 -5 5 -10 11 -10 5 0 7 6 3 13 -6 9 -5 9 8 -1
8 -6 45 -13 82 -14 37 -1 70 -6 72 -10 3 -4 91 -8 195 -8 150 0 189 3 183 13
-6 9 -4 9 8 -1 12 -10 18 -10 23 -2 4 7 18 10 31 7 13 -2 24 -1 24 3 0 4 10 6
23 5 12 -1 28 3 36 9 12 9 13 8 7 -4 -5 -10 -3 -10 6 2 10 11 19 13 30 7 11
-6 18 -4 22 7 5 13 9 14 20 5 10 -8 16 -9 21 -1 3 5 15 10 26 10 10 0 19 6 19
13 0 7 3 8 8 2 12 -17 29 -15 44 3 12 16 11 16 -7 3 -20 -15 -20 -15 -1 5 13
13 20 15 23 7 3 -9 11 -6 26 7 24 23 37 25 37 8 0 -9 3 -8 9 2 6 8 7 19 3 25
-3 5 2 4 11 -4 15 -12 18 -10 26 10 5 13 10 18 10 10 1 -11 4 -11 18 0 14 12
16 12 9 -1 -4 -8 -1 -7 8 4 8 10 22 16 31 13 9 -4 15 -1 15 9 0 8 5 12 10 9 6
-3 10 -1 10 4 0 6 5 11 12 11 6 0 23 10 37 23 21 18 23 19 11 2 -14 -19 -14
-19 6 -2 11 9 23 15 26 12 3 -3 13 5 24 17 l19 23 -25 -20 c-25 -19 -25 -19
-7 0 10 11 25 20 35 20 9 0 16 6 14 14 -3 12 -1 12 14 0 10 -8 15 -9 11 -3 -4
7 0 15 9 18 8 3 12 11 8 17 -4 8 -3 9 5 5 15 -10 43 13 34 28 -4 6 -1 6 9 -2
13 -10 22 -5 57 33 45 49 53 54 45 28 -5 -16 -4 -16 5 -2 6 9 12 27 15 40 2
16 9 23 20 21 9 -2 16 3 16 10 0 7 11 14 24 14 18 1 24 -3 24 -22 0 -13 -4
-21 -8 -19 -5 3 -6 -4 -3 -15 3 -12 0 -20 -7 -20 -10 0 -10 -3 -1 -14 7 -9 8
-15 2 -18 -5 -1 -11 -15 -13 -30 -2 -15 -7 -30 -11 -34 -4 -4 -7 -18 -7 -31 0
-16 -4 -22 -12 -17 -8 5 -9 2 -5 -9 3 -10 2 -17 -4 -17 -6 0 -7 -5 -4 -10 4
-6 -1 -22 -10 -37 -9 -14 -12 -22 -5 -18 9 5 8 1 -1 -16 -7 -13 -12 -27 -11
-31 1 -5 -3 -8 -9 -8 -5 0 -7 -5 -4 -10 4 -6 0 -21 -8 -34 -12 -18 -13 -26 -4
-36 9 -10 9 -11 0 -6 -7 4 -13 2 -13 -4 0 -6 -4 -9 -9 -6 -4 3 -6 -6 -3 -21 4
-20 2 -24 -9 -18 -8 5 -11 5 -7 0 4 -4 2 -15 -5 -23 -9 -13 -9 -14 0 -8 9 5
11 2 7 -8 -3 -9 -11 -16 -16 -16 -6 0 -7 -7 -4 -16 3 -8 2 -13 -3 -10 -5 3
-12 -1 -15 -10 -4 -10 -2 -13 6 -8 7 5 8 3 4 -5 -5 -7 -15 -10 -23 -6 -13 4
-14 3 -3 -10 12 -14 7 -20 -14 -16 -5 1 -3 -6 5 -15 12 -15 12 -17 0 -9 -11 6
-13 3 -9 -13 4 -12 2 -22 -4 -22 -6 0 -8 -9 -5 -20 3 -11 1 -18 -4 -14 -5 3
-9 0 -9 -5 0 -6 -6 -10 -12 -8 -8 1 -12 -6 -10 -17 2 -10 -1 -15 -7 -11 -7 3
-8 0 -5 -9 4 -9 1 -16 -6 -16 -7 0 -10 -7 -6 -16 3 -8 2 -13 -3 -10 -5 3 -12
-1 -15 -10 -4 -10 -2 -13 7 -9 6 4 3 -1 -7 -9 -11 -9 -16 -16 -10 -16 5 0 2
-6 -6 -13 -8 -7 -15 -19 -15 -27 0 -8 -6 -14 -13 -12 -10 2 -10 -2 -3 -16 7
-14 6 -19 -4 -19 -8 0 -11 5 -8 10 4 6 1 7 -6 3 -7 -5 -10 -11 -7 -14 3 -3 -1
-14 -11 -24 -9 -11 -11 -18 -5 -18 7 0 12 5 12 12 0 6 3 8 7 5 3 -4 -3 -16
-14 -27 -12 -10 -23 -16 -26 -13 -3 3 -3 -6 0 -19 3 -16 2 -19 -5 -10 -7 11
-11 8 -17 -10 -4 -12 -7 -26 -6 -30 1 -5 -6 -8 -15 -8 -10 0 -14 -6 -10 -15 3
-8 1 -15 -5 -15 -6 0 -8 -3 -5 -8 2 -4 -3 -16 -11 -27 -15 -19 -15 -19 -8 5 5
19 4 21 -4 10 -6 -8 -11 -21 -11 -29 0 -8 -7 -19 -15 -25 -9 -6 -17 -21 -18
-33 0 -12 -5 -19 -9 -17 -5 3 -6 10 -3 15 4 5 4 9 2 9 -3 0 -15 -17 -27 -37
-18 -30 -18 -34 -4 -22 15 12 15 10 -1 -12 -12 -15 -26 -24 -34 -21 -10 4 -12
1 -6 -8 6 -10 4 -12 -9 -7 -14 6 -15 4 -5 -16 11 -19 10 -20 -3 -9 -13 11 -16
10 -14 -5 0 -10 -4 -17 -10 -16 -7 1 -10 -6 -7 -20 4 -18 3 -19 -6 -7 -9 13
-11 12 -11 -4 0 -12 -5 -16 -16 -12 -9 3 -12 2 -9 -5 8 -12 -40 -60 -51 -50
-4 3 -4 -2 -1 -12 4 -11 3 -16 -3 -12 -10 6 -15 -9 -10 -30 1 -5 -2 -7 -6 -3
-4 4 -14 2 -22 -5 -13 -10 -14 -9 -7 2 5 10 4 12 -3 7 -7 -4 -12 -15 -12 -26
0 -10 -7 -21 -16 -24 -15 -6 -15 -4 -3 11 13 16 12 17 -3 4 -10 -7 -18 -18
-18 -24 0 -14 -48 -56 -56 -48 -4 3 -4 -2 -1 -12 4 -11 3 -16 -3 -12 -9 6 -14
-8 -11 -28 1 -5 -3 -6 -8 -3 -5 4 -15 -2 -21 -11 -11 -17 -11 -17 -6 0 3 11 2
15 -4 12 -6 -3 -10 -13 -10 -21 0 -9 -5 -12 -12 -8 -8 5 -9 2 -5 -10 4 -10 3
-15 -3 -11 -9 6 -14 -8 -11 -28 1 -5 -3 -6 -9 -2 -6 3 -7 11 -4 17 4 7 2 8 -4
4 -7 -4 -12 -14 -12 -22 0 -8 -11 -19 -25 -24 -14 -5 -28 -17 -31 -25 -4 -8
-12 -15 -20 -15 -8 0 -14 -7 -14 -16 0 -12 -6 -15 -21 -11 -16 4 -18 3 -9 -8
9 -11 7 -12 -12 -7 -21 5 -22 4 -9 -12 8 -9 10 -16 5 -15 -18 3 -54 -13 -54
-25 0 -6 -5 -4 -10 4 -8 13 -10 13 -10 -1 0 -9 -10 -24 -22 -35 -19 -15 -20
-16 -9 -1 8 10 9 17 3 17 -6 0 -14 -9 -17 -21 -6 -17 -9 -18 -22 -7 -14 11
-15 11 -5 -8 10 -19 9 -21 -13 -18 -16 1 -30 -5 -40 -19 -8 -12 -15 -18 -15
-14 0 4 -12 -4 -27 -18 -15 -14 -33 -25 -40 -25 -7 0 -13 -6 -13 -12 0 -9 -4
-8 -10 2 -8 12 -10 10 -10 -9 0 -19 -3 -21 -14 -12 -11 10 -18 7 -30 -11 -14
-19 -18 -21 -26 -8 -8 13 -10 13 -10 -2 0 -22 -20 -34 -30 -18 -6 9 -10 6 -15
-10 -6 -18 -9 -20 -16 -9 -6 10 -9 8 -9 -10 0 -20 -2 -21 -15 -11 -12 10 -15
10 -15 -3 0 -8 -7 -18 -16 -21 -10 -4 -13 -2 -8 7 5 8 2 8 -9 -2 -9 -7 -14
-18 -10 -25 4 -6 -1 -5 -10 3 -12 9 -17 10 -17 2 0 -7 -4 -9 -10 -6 -5 3 -10
2 -10 -3 0 -6 -7 -13 -16 -16 -8 -3 -13 -2 -10 2 3 5 -1 9 -9 9 -8 0 -13 -2
-10 -5 8 -9 -40 -40 -57 -37 -10 2 -18 0 -18 -6 0 -5 -8 -9 -18 -9 -10 0 -24
-6 -31 -12 -11 -11 -13 -10 -7 2 4 8 0 6 -8 -4 -9 -11 -16 -16 -16 -12 0 4
-17 -3 -37 -15 -34 -21 -36 -21 -23 -4 14 19 14 19 -6 2 -11 -9 -24 -14 -29
-10 -4 5 -5 3 -1 -4 3 -7 -2 -14 -14 -18 -11 -4 -17 -11 -14 -17 5 -8 1 -9
-10 -5 -10 4 -15 3 -11 -3 3 -6 -2 -10 -12 -11 -10 0 -13 -3 -5 -6 6 -2 12
-11 12 -19 0 -10 -5 -12 -12 -8 -9 5 -9 3 1 -9 7 -9 17 -14 22 -11 5 3 6 -2 3
-11 -4 -9 1 -22 12 -31 11 -9 13 -13 7 -9 -9 4 -11 1 -7 -9 3 -9 10 -14 14
-11 5 3 12 0 16 -6 5 -8 3 -9 -6 -4 -10 6 -12 4 -7 -8 3 -9 1 -18 -6 -21 -7
-3 -6 -5 3 -5 29 2 40 -1 40 -12 0 -5 -5 -7 -11 -3 -8 5 -8 1 0 -13 6 -11 7
-24 3 -29 -4 -5 1 -2 11 6 10 7 17 9 16 4 -3 -17 1 -37 7 -32 3 4 19 2 35 -2
19 -6 29 -5 29 2 0 5 7 7 16 4 8 -3 12 -2 9 4 -3 6 -2 10 4 10 5 0 12 -6 14
-12 4 -10 6 -10 6 0 1 7 15 12 34 12 18 0 39 6 46 13 11 10 13 9 7 -3 -4 -8 0
-6 8 4 9 12 16 14 16 7 0 -8 5 -7 16 4 14 13 19 14 25 3 7 -10 9 -10 9 0 0 6
7 12 15 12 8 0 15 6 15 13 0 9 2 9 9 -1 7 -11 9 -11 14 1 3 9 16 13 31 12 14
-2 26 1 26 6 0 5 8 9 18 9 10 0 24 6 31 12 11 11 12 10 6 -2 -8 -13 -7 -13 11
0 10 8 22 20 26 25 5 6 8 5 8 -2 0 -21 18 -15 25 8 6 17 9 19 16 8 8 -12 10
-12 18 0 5 8 18 12 29 9 14 -4 19 -2 15 8 -3 9 2 12 16 9 14 -3 21 1 21 12 0
13 2 14 17 2 11 -10 14 -10 9 -1 -4 7 -2 12 4 12 6 0 8 5 4 13 -5 8 -2 8 9 -2
16 -12 22 -8 18 12 -1 5 3 6 9 2 5 -3 10 0 10 7 0 9 3 9 10 -2 6 -10 10 -11
10 -2 0 6 7 12 16 12 9 0 12 5 8 12 -4 6 -3 8 3 5 6 -4 16 0 23 8 7 8 17 12
23 8 5 -3 16 2 23 11 7 10 15 17 18 17 21 -3 26 1 20 12 -5 9 -4 9 6 0 10 -9
17 -7 33 8 14 13 23 16 28 8 4 -7 9 -4 14 10 6 19 23 26 48 22 5 -1 6 3 2 9
-3 5 -1 10 5 10 6 0 8 5 4 13 -6 9 -3 8 8 -1 14 -11 19 -10 33 11 9 14 24 28
33 32 13 5 12 2 -4 -17 l-19 -23 23 19 c12 11 22 26 22 35 0 10 3 12 8 6 13
-19 37 -11 34 10 -2 11 -1 17 3 13 4 -4 19 5 33 20 21 22 24 23 19 7 -5 -15
-1 -12 17 9 13 16 29 25 35 22 6 -4 11 0 11 8 0 9 6 16 14 16 8 0 18 5 22 12
5 7 3 8 -6 3 -8 -5 -11 -4 -6 3 3 6 15 9 26 7 12 -2 18 0 15 4 -3 5 2 11 10
15 9 3 12 12 9 23 -5 14 -4 15 4 4 9 -12 13 -12 27 2 9 10 22 14 28 10 6 -4 8
0 4 10 -4 11 1 18 16 23 12 5 26 7 30 6 5 -1 6 2 2 8 -3 5 1 13 9 16 9 3 16
10 16 16 0 5 -6 6 -12 2 -7 -4 -9 -3 -5 1 7 9 28 15 55 17 6 1 12 7 12 15 0 7
11 18 25 23 14 5 25 12 25 15 0 4 -5 3 -10 0 -6 -3 -10 -2 -10 3 0 6 11 13 25
16 14 4 23 11 20 16 -3 6 -1 10 5 10 6 0 8 5 5 10 -3 6 1 10 10 10 8 0 18 7
21 15 4 8 11 12 17 8 6 -4 8 0 4 11 -4 10 -3 15 3 11 10 -6 15 9 10 30 -1 5 2
7 6 3 4 -4 14 -2 22 5 13 10 14 9 7 -2 -5 -10 -4 -12 3 -7 7 4 12 15 12 26 0
10 7 21 16 24 15 6 15 4 3 -11 -13 -16 -12 -17 4 -4 9 7 17 20 17 28 0 10 6
13 16 9 14 -5 15 -4 5 8 -9 11 -9 16 0 22 8 5 10 3 5 -7 -4 -8 -1 -6 7 3 8 10
18 14 22 10 5 -4 6 1 2 10 -3 10 0 19 9 22 8 3 12 1 9 -4 -3 -6 1 -7 10 -4 14
6 14 8 -2 20 -17 12 -17 13 3 9 18 -3 21 0 16 17 -3 14 -1 19 6 14 7 -4 12 -2
12 3 0 21 2 26 12 38 6 7 14 10 19 7 5 -3 9 0 9 6 0 6 5 8 10 5 6 -3 10 1 10
10 0 9 4 14 9 10 5 -3 13 0 17 6 4 8 3 9 -4 5 -7 -4 -12 -1 -12 9 0 9 5 13 10
10 10 -6 35 41 31 58 -1 5 3 6 9 2 8 -5 7 -12 -1 -23 -12 -15 -11 -16 4 -2 9
8 18 25 20 38 2 12 10 28 17 35 11 9 11 7 0 -8 -14 -18 -14 -19 3 -6 9 7 17
20 17 28 0 8 4 12 9 8 5 -3 13 0 17 6 4 8 3 9 -4 5 -7 -4 -12 -2 -12 3 0 6 5
11 11 11 5 0 8 4 4 9 -3 5 4 13 16 16 17 6 19 9 8 16 -11 7 -11 9 3 9 9 0 20
5 24 12 5 7 3 8 -5 3 -10 -5 -9 -2 0 13 7 12 17 18 22 15 4 -3 7 3 5 13 -2 11
2 18 10 17 6 -2 12 6 12 18 0 16 4 19 17 15 10 -4 14 -4 10 0 -4 4 -1 14 5 23
10 13 10 14 -2 4 -8 -7 -19 -13 -24 -13 -6 0 1 8 16 18 23 15 26 21 15 32 -6
8 -8 12 -3 8 11 -9 42 21 50 50 5 13 12 20 19 16 8 -5 8 -2 0 7 -15 15 -17 33
-3 24 5 -3 16 10 24 30 8 19 18 35 21 35 3 0 3 -5 -1 -12 -4 -6 -3 -8 4 -5 5
4 9 18 7 32 -2 20 0 23 12 14 11 -10 12 -8 7 6 -5 13 -4 16 4 11 8 -5 10 -2 6
9 -4 8 -1 22 6 30 6 8 8 20 4 27 -6 10 -5 10 8 0 14 -11 16 -10 14 5 -2 10 4
24 13 31 13 11 13 12 1 7 -10 -4 -10 -2 2 8 12 9 14 17 8 25 -6 7 -7 10 -4 7
7 -4 34 19 34 30 0 3 -6 3 -12 0 -7 -4 -4 1 6 9 11 9 16 16 11 16 -5 0 0 7 11
16 10 8 13 13 7 9 -9 -4 -11 -1 -7 9 3 9 11 13 18 9 6 -4 4 2 -4 12 -9 11 -10
16 -2 11 11 -6 17 5 13 27 0 4 4 7 10 7 8 0 7 6 -2 18 -7 9 -10 14 -5 10 5 -4
15 -1 22 7 17 17 18 28 2 20 -7 -4 -2 3 12 14 16 13 20 21 11 21 -11 0 -10 4
5 16 10 8 13 13 7 9 -9 -4 -11 -1 -7 9 3 9 10 13 15 10 5 -3 6 2 3 11 -4 8 -1
21 5 29 6 7 8 16 4 19 -3 4 -1 7 7 7 10 0 10 4 -1 17 -10 11 -10 14 -1 9 7 -4
12 -2 12 4 0 7 7 10 18 6 14 -5 14 -4 -2 9 -11 8 -14 15 -7 15 7 0 9 5 6 10
-3 6 -2 10 2 10 5 0 9 12 8 28 0 15 6 33 15 40 8 8 9 11 3 7 -9 -4 -11 -1 -7
9 3 9 10 13 15 10 5 -3 6 2 3 10 -3 8 4 32 14 55 11 23 16 43 11 47 -5 3 -7
10 -3 15 3 5 10 6 16 3 6 -4 5 2 -1 15 -10 17 -9 22 4 27 12 5 13 9 4 20 -9
11 -9 14 0 14 7 0 9 5 6 10 -3 6 -1 10 6 10 9 0 9 3 0 14 -9 11 -9 15 1 18 7
3 13 18 13 35 0 17 7 38 14 47 8 9 9 16 3 16 -14 0 -3 40 12 41 6 0 2 4 -9 9
-19 8 -19 9 -1 9 11 1 16 4 13 8 -4 3 -2 12 4 20 7 8 7 13 2 13 -6 0 -8 12 -6
28 2 15 4 35 4 45 0 9 4 17 10 17 5 0 9 5 9 11 0 5 -6 7 -12 3 -8 -4 -7 0 2
12 9 11 15 39 15 67 0 26 3 47 8 47 4 0 6 3 4 8 -3 4 -1 16 3 27 4 11 4 30 -1
43 -5 12 -5 22 -1 22 4 0 7 25 6 55 -1 30 2 55 6 55 4 0 7 6 8 13 1 6 3 27 5
45 2 18 0 35 -5 38 -5 3 -5 11 -1 17 4 6 7 21 7 32 0 11 -3 26 -7 32 -4 6 -3
15 3 18 8 5 8 11 0 20 -8 10 -8 15 0 20 8 5 8 10 0 20 -8 9 -8 15 0 20 6 4 7
12 1 24 -5 9 -6 23 -1 31 4 7 4 24 -1 37 -5 15 -5 22 0 18 6 -3 6 6 1 25 -5
18 -5 32 1 36 6 4 6 11 -1 19 -6 8 -7 16 -2 19 10 6 8 48 -3 65 -3 6 -1 11 5
11 8 0 8 6 0 20 -6 11 -8 20 -4 20 3 0 1 7 -6 15 -11 13 -10 14 5 8 15 -5 14
-2 -4 16 -19 19 -21 25 -10 32 8 5 9 9 4 9 -6 0 -10 18 -8 40 1 30 -2 40 -13
40 -8 0 -12 5 -9 10 4 6 12 7 18 3 9 -5 9 -3 1 8 -6 8 -11 26 -10 42 1 15 -2
27 -5 27 -4 0 -11 25 -15 56 -4 37 -9 51 -15 43 -5 -9 -7 -2 -4 18 2 18 -1 35
-6 39 -6 4 -6 11 2 20 9 11 9 14 -1 14 -7 0 -10 8 -7 20 3 13 0 20 -9 20 -10
0 -11 6 -4 26 6 14 6 23 1 20 -5 -3 -11 1 -15 9 -3 8 0 15 7 15 8 0 9 3 1 8
-11 7 -34 46 -34 57 0 3 6 3 13 -1 6 -4 4 2 -7 14 -10 12 -16 28 -12 37 3 9 2
13 -4 10 -9 -5 -32 27 -29 42 4 22 -2 34 -13 27 -10 -6 -10 -4 0 7 15 16 16
29 1 29 -5 0 -7 -6 -3 -12 4 -7 3 -10 -1 -5 -5 4 -10 17 -12 28 -4 29 -65 149
-75 149 -4 0 -8 9 -8 20 0 11 -5 20 -11 20 -6 0 -9 9 -6 20 5 18 -4 25 -26 21
-5 -1 -6 3 -2 9 3 5 1 10 -6 10 -8 0 -8 5 2 18 7 9 10 14 5 10 -13 -11 -55 35
-44 49 6 7 5 14 -3 19 -8 4 -9 3 -5 -4 4 -7 3 -12 -2 -12 -15 0 -22 26 -10 38
8 8 5 9 -9 6 -13 -4 -23 0 -27 12 -5 14 -4 15 9 4 13 -11 14 -10 9 4 -5 14
-17 20 -35 18 -4 -1 -5 9 -2 21 4 18 3 20 -7 7 -10 -13 -11 -12 -7 6 4 17 0
20 -20 18 -21 -2 -22 0 -11 14 10 12 10 14 1 8 -7 -4 -13 -3 -13 3 0 5 -9 13
-20 16 -11 4 -18 11 -15 16 4 5 -2 9 -12 10 -16 0 -16 1 2 9 18 7 16 8 -10 11
-23 3 -29 8 -27 23 3 13 -1 17 -12 13 -10 -4 -20 1 -26 14 -6 11 -16 17 -23
13 -7 -4 -9 -4 -5 1 4 4 -1 15 -10 24 -10 9 -12 12 -5 7 10 -6 12 -4 7 8 -3 9
-15 16 -25 16 -10 0 -19 4 -19 9 0 5 -9 11 -20 14 -11 3 -20 12 -20 21 0 9 -5
16 -11 16 -5 0 -7 -6 -3 -12 3 -7 -6 1 -20 17 -20 23 -25 25 -20 10 5 -18 5
-18 -6 -2 -6 9 -15 15 -21 12 -5 -3 -6 0 -3 8 3 8 -2 17 -11 21 -9 3 -13 2
-10 -4 3 -6 1 -10 -4 -10 -6 0 -11 6 -11 14 0 8 -5 18 -12 22 -7 4 -8 3 -4 -4
5 -8 2 -10 -8 -6 -9 3 -15 9 -14 12 2 20 -4 23 -19 11 -10 -7 -15 -10 -11 -5
12 14 -15 35 -30 23 -10 -8 -12 -7 -10 3 2 8 -2 14 -9 15 -7 0 -21 7 -31 16
-10 9 -26 15 -35 13 -9 -1 -17 2 -17 8 0 6 -7 8 -15 4 -8 -3 -15 -1 -15 5 0 6
-5 7 -10 4 -6 -3 -13 1 -16 10 -6 13 -8 14 -15 3 -7 -10 -9 -10 -9 0 0 6 -7
12 -16 12 -9 0 -12 5 -8 13 5 8 2 8 -9 -2 -9 -7 -17 -9 -17 -4 0 5 -10 9 -22
10 -11 1 -24 7 -28 14 -6 8 -9 8 -13 -2 -4 -10 -6 -10 -6 -1 -1 7 -16 12 -41
12 -22 0 -40 5 -40 10 0 6 -5 10 -11 10 -5 0 -7 -6 -3 -12 6 -10 4 -10 -7 0
-7 6 -28 12 -46 12 -20 0 -33 5 -33 13 0 8 -4 7 -10 -3 -6 -10 -10 -11 -10 -2
0 8 -19 12 -60 12 -33 0 -60 4 -60 10 0 5 -83 9 -210 9 -141 0 -210 -3 -210
-10z m400 -342 c0 -7 4 -6 10 3 6 10 10 11 10 3 0 -7 11 -13 25 -13 14 0 25
-4 25 -8 0 -5 10 -8 23 -7 27 2 48 -5 42 -14 -2 -4 2 -8 10 -8 8 0 12 4 9 9
-4 5 3 4 15 -4 12 -7 21 -17 21 -22 0 -4 7 -3 15 4 10 9 15 9 15 1 0 -6 7 -11
15 -11 8 0 15 -6 15 -12 0 -10 2 -10 9 0 6 10 10 8 15 -10 5 -14 9 -18 13 -10
4 10 9 8 21 -5 17 -18 31 -23 63 -26 9 0 16 -7 16 -14 0 -8 -4 -10 -12 -3 -8
7 -12 5 -12 -5 0 -7 3 -14 6 -13 24 2 61 -3 60 -9 -1 -5 -1 -15 0 -23 1 -13 2
-13 11 0 7 11 10 11 10 2 0 -7 4 -10 10 -7 6 3 7 -1 4 -10 -4 -9 -3 -15 2 -14
5 1 16 1 24 0 13 -1 13 -2 0 -11 -13 -9 -13 -10 0 -11 8 -1 18 -1 22 -1 3 1 9
-5 12 -14 4 -10 1 -13 -7 -9 -6 4 -4 0 5 -8 10 -8 14 -17 10 -21 -4 -4 0 -6 8
-4 10 2 15 -4 14 -18 0 -16 5 -20 23 -18 18 2 21 -1 14 -9 -11 -14 9 -47 28
-47 7 0 9 -4 6 -10 -3 -5 -1 -10 5 -10 7 0 10 -7 6 -15 -3 -9 0 -15 9 -15 14
0 19 -12 16 -32 0 -5 4 -8 9 -8 5 0 9 -3 9 -7 -4 -22 2 -33 14 -27 6 4 9 4 5
-1 -4 -4 -2 -15 5 -23 9 -13 9 -14 0 -8 -7 4 -13 2 -13 -3 0 -6 7 -11 15 -11
10 0 14 -9 11 -30 -2 -20 1 -30 10 -30 8 0 14 -2 14 -4 0 -2 3 -12 7 -22 4
-12 3 -15 -6 -10 -9 6 -9 3 1 -13 7 -12 20 -22 28 -22 11 -1 10 -3 -2 -6 -22
-5 -24 -23 -4 -23 10 0 13 -8 11 -22 -3 -12 1 -28 7 -36 12 -14 18 -33 20 -62
1 -8 7 -21 15 -28 17 -17 17 -35 1 -27 -7 4 -5 0 5 -8 12 -10 15 -17 7 -22 -8
-5 -5 -11 7 -21 13 -9 14 -13 4 -14 -9 0 -10 -4 -4 -12 6 -7 10 -20 10 -28 1
-28 8 -45 23 -52 12 -5 12 -7 -2 -7 -22 -1 -23 -8 -3 -28 13 -12 13 -18 3 -31
-11 -13 -11 -14 1 -7 11 6 13 3 9 -13 -4 -12 -3 -22 2 -22 4 0 10 -9 13 -20 3
-11 2 -20 -2 -20 -12 0 -6 -37 10 -56 11 -14 11 -16 0 -10 -8 6 -7 0 4 -18 11
-17 13 -26 6 -26 -7 0 -10 -4 -7 -8 3 -5 6 -26 7 -48 1 -21 6 -43 9 -49 4 -5
7 -23 6 -40 -1 -16 2 -35 7 -42 5 -7 5 -18 1 -25 -10 -16 -13 -48 -4 -48 3 0
6 -10 7 -22 1 -11 7 -24 14 -28 8 -6 8 -9 0 -15 -9 -5 -9 -10 0 -21 7 -9 8
-14 1 -14 -7 0 -8 -10 -2 -30 5 -16 5 -30 1 -30 -4 0 -8 -7 -8 -15 0 -8 3 -15
7 -15 8 0 4 -49 -4 -57 -3 -4 -1 -12 5 -20 9 -10 8 -13 -1 -13 -9 0 -9 -4 -2
-13 7 -8 7 -18 2 -27 -5 -9 -5 -19 2 -27 7 -9 7 -13 -2 -13 -9 0 -9 -4 -2 -13
7 -8 7 -18 2 -27 -5 -9 -5 -19 2 -27 7 -9 7 -13 -2 -13 -9 0 -9 -4 -2 -13 7
-8 7 -18 2 -27 -5 -9 -5 -19 2 -27 7 -9 7 -13 0 -13 -10 0 -11 -25 0 -35 8 -8
-3 -55 -14 -55 -5 0 -7 -4 -3 -9 3 -5 0 -13 -6 -17 -8 -4 -7 -9 2 -15 11 -7
11 -9 1 -9 -7 0 -10 -4 -7 -10 3 -5 2 -10 -3 -10 -6 0 -9 -8 -8 -17 0 -10 -4
-17 -11 -16 -7 2 -10 -4 -7 -12 4 -8 1 -15 -5 -15 -6 0 -10 -6 -9 -12 2 -7 -2
-12 -7 -11 -6 1 -12 -8 -12 -20 -1 -12 -7 -23 -13 -25 -5 -2 -10 -10 -10 -17
0 -8 -12 -23 -26 -34 -15 -12 -23 -21 -19 -21 15 0 -30 -42 -55 -52 -20 -7
-22 -11 -10 -19 12 -8 10 -9 -6 -5 -14 4 -27 -1 -40 -16 l-19 -23 25 20 25 20
-18 -21 c-9 -11 -15 -23 -12 -25 2 -3 -8 -5 -23 -4 -19 0 -30 -7 -37 -22 -5
-13 -16 -25 -24 -28 -12 -5 -12 -3 0 12 12 15 11 15 -8 -1 -13 -10 -20 -22
-18 -26 3 -4 -3 -14 -12 -21 -10 -8 -14 -9 -10 -2 4 6 3 14 -3 18 -5 3 -10 -1
-10 -10 0 -9 -5 -13 -10 -10 -6 3 -14 -4 -19 -17 -6 -13 -10 -18 -10 -12 -1 6
-8 11 -16 11 -12 0 -12 -3 -3 -15 10 -11 8 -13 -7 -10 -12 2 -20 -3 -20 -11 0
-8 -8 -15 -18 -17 -10 -1 -15 2 -11 9 3 7 -4 1 -15 -12 -12 -13 -21 -18 -21
-11 0 7 -9 3 -20 -10 -12 -13 -20 -18 -20 -10 0 14 -14 5 -16 -11 -3 -22 -5
-23 -13 -10 -7 11 -13 10 -32 -8 -17 -16 -25 -18 -31 -9 -5 9 -8 8 -8 -5 0
-10 -5 -15 -10 -12 -6 4 -18 1 -27 -7 -14 -11 -16 -11 -8 2 8 13 6 13 -8 2 -9
-8 -21 -11 -26 -8 -5 4 -13 1 -17 -5 -5 -8 -3 -9 6 -4 9 5 11 4 6 -4 -6 -9
-11 -9 -24 1 -9 7 -13 8 -10 3 4 -6 -5 -15 -18 -22 -13 -6 -22 -7 -18 -2 3 5
0 9 -5 9 -6 0 -11 -4 -11 -10 0 -5 -14 -10 -31 -10 -16 0 -28 -4 -25 -8 3 -5
-1 -9 -9 -9 -8 0 -11 5 -8 11 3 6 0 5 -8 -1 -7 -7 -33 -13 -57 -13 -29 0 -41
-4 -36 -11 4 -7 -1 -7 -16 1 -20 11 -22 10 -17 -4 4 -10 3 -15 -2 -12 -5 3
-90 6 -190 6 -132 1 -181 5 -182 13 0 7 -3 7 -6 -2 -4 -9 -7 -10 -12 -2 -4 6
-24 12 -44 13 -20 1 -37 5 -37 9 0 5 -6 6 -13 3 -8 -3 -20 2 -27 11 -10 12
-16 13 -26 4 -11 -9 -14 -8 -14 0 0 7 -4 9 -10 6 -5 -3 -10 -2 -10 4 0 6 -7 7
-17 4 -11 -4 -14 -3 -9 6 6 8 2 11 -10 9 -12 -2 -18 2 -16 11 3 12 1 12 -14 0
-12 -9 -15 -9 -10 -1 7 11 -6 16 -41 15 -7 -1 -11 2 -9 6 3 4 -4 13 -16 20
-15 9 -18 10 -13 0 6 -8 4 -10 -4 -5 -7 5 -10 15 -6 24 3 9 3 13 -1 9 -4 -4
-16 1 -27 10 -10 10 -21 17 -23 16 -12 -8 -24 -1 -18 10 5 7 0 6 -11 -3 -10
-8 -16 -10 -12 -4 4 7 -2 14 -13 17 -14 4 -18 10 -14 22 5 12 2 16 -12 13 -13
-2 -20 4 -22 20 -2 12 -8 22 -13 22 -6 0 -7 -5 -3 -12 4 -7 3 -8 -5 -4 -6 4
-9 12 -6 17 4 5 -4 13 -17 18 -13 6 -34 22 -48 37 -23 25 -23 26 -3 16 12 -7
24 -17 26 -24 4 -10 6 -10 6 0 1 7 -15 22 -34 33 -19 12 -35 23 -35 26 0 2 5
1 10 -2 6 -3 10 -1 10 4 0 6 -10 11 -22 11 -22 1 -23 1 -4 15 11 8 17 15 14
15 -4 0 -15 3 -25 6 -15 5 -16 4 -3 -6 13 -10 13 -11 0 -7 -8 2 -14 11 -12 21
2 9 -2 16 -8 16 -5 0 -10 9 -10 20 0 11 -5 20 -10 20 -6 0 -9 3 -9 8 3 19 -2
33 -11 27 -6 -3 -7 1 -4 10 5 11 2 14 -12 9 -17 -6 -17 -5 1 9 17 14 18 16 3
17 -9 0 -20 5 -24 12 -4 7 -3 8 4 4 8 -5 10 -2 6 8 -3 9 -10 14 -14 11 -4 -3
-10 2 -13 10 -4 10 -1 12 11 9 9 -3 6 1 -7 9 -16 10 -20 16 -12 22 9 5 9 11
-2 23 -23 28 -32 46 -17 37 8 -5 11 -3 8 6 -3 8 -10 13 -15 12 -5 -1 -9 11 -8
27 1 16 -4 31 -11 34 -8 3 -11 12 -8 20 3 8 1 17 -5 20 -7 5 -7 15 -1 31 7 17
6 25 -1 25 -6 0 -9 9 -6 20 3 13 0 20 -10 20 -9 0 -13 6 -9 15 8 21 -4 46 -18
38 -6 -4 -5 1 3 10 8 10 9 17 3 17 -7 0 -8 10 -2 29 5 19 4 33 -3 40 -6 6 -7
11 -3 11 5 0 2 8 -5 17 -12 15 -12 16 1 8 13 -8 13 -7 1 8 -8 10 -11 20 -8 24
4 3 2 12 -4 20 -9 10 -8 13 1 13 9 0 9 4 2 13 -7 8 -7 18 -2 27 5 9 5 19 -2
27 -7 9 -7 13 2 13 9 0 9 4 2 13 -7 8 -7 18 -2 27 5 9 5 19 -2 27 -7 9 -7 13
2 13 9 0 9 4 2 13 -7 8 -7 18 -2 27 5 9 5 19 -2 27 -6 7 -7 13 -2 13 5 0 9 25
9 55 0 30 -3 55 -6 55 -7 0 -3 49 5 57 3 4 1 12 -5 20 -6 7 -7 13 -2 13 5 0
10 7 10 15 0 8 -3 15 -7 15 -4 0 -4 21 0 48 5 26 6 50 4 53 -2 4 2 12 10 18 8
7 12 26 9 52 -3 27 -1 39 6 34 6 -3 11 -1 11 4 0 6 -6 11 -12 11 -9 0 -8 3 2
10 8 5 11 12 7 16 -4 4 -1 14 6 22 10 13 9 15 -3 8 -9 -4 -8 -2 2 7 10 8 15
17 12 20 -3 3 -1 15 6 26 8 16 8 21 -2 21 -10 0 -10 3 1 9 8 5 11 16 8 26 -4
9 -3 14 3 10 6 -3 11 -1 11 4 1 6 3 16 4 21 1 6 3 19 4 31 1 13 5 18 13 13 8
-5 9 -2 5 9 -3 10 -2 17 4 17 6 0 7 5 4 10 -4 6 1 22 10 37 9 14 12 22 6 19
-6 -4 -2 11 10 33 13 25 25 38 32 34 7 -4 7 0 -1 9 -11 14 -9 19 10 32 13 9
17 16 9 16 -9 0 -5 8 9 20 15 13 18 20 9 20 -10 1 -9 4 4 11 9 6 15 14 12 20
-6 8 8 13 30 10 6 -1 1 6 -9 14 -18 13 -18 15 -3 15 16 0 43 44 38 63 -1 5 3
6 9 2 8 -5 7 -12 -1 -23 -12 -15 -11 -16 4 -2 9 8 18 25 20 38 2 12 10 28 17
35 11 9 11 7 0 -8 -14 -18 -14 -19 3 -6 9 7 17 20 17 28 0 8 5 11 12 7 8 -5 9
-2 5 9 -5 12 -1 17 13 17 11 0 20 5 20 11 0 5 -5 7 -12 3 -7 -4 -8 -3 -4 5 4
6 11 9 16 6 4 -3 11 2 14 10 3 8 11 14 18 13 8 -2 12 5 10 16 -3 17 -1 18 11
8 12 -11 15 -10 13 5 0 12 5 17 17 17 15 -2 16 1 5 14 -10 12 -10 14 0 8 11
-7 17 5 13 27 -1 5 3 6 9 2 6 -3 8 -10 6 -14 -3 -4 1 -8 8 -8 8 0 12 6 10 12
-7 16 22 38 37 29 8 -4 9 -3 5 4 -4 7 -1 12 6 12 7 0 19 9 26 20 7 11 18 17
27 14 10 -4 18 2 24 17 5 13 10 19 10 13 1 -6 8 -11 16 -11 8 0 12 3 10 7 -2
3 5 12 17 19 16 10 19 10 13 -1 -3 -7 0 -5 8 5 11 13 17 15 23 6 5 -9 11 -7
21 7 8 10 16 18 18 17 13 -8 45 -2 40 7 -3 6 -1 10 4 10 6 0 11 -6 11 -12 0
-10 3 -9 9 1 5 7 14 10 20 7 6 -4 11 -2 11 5 0 7 3 9 7 6 3 -4 13 -1 21 6 13
10 14 9 7 -3 -8 -13 -7 -13 8 -1 9 7 17 10 17 5 0 -4 4 -4 9 2 15 14 451 6
451 -9z m611 -374 c13 -16 12 -17 -3 -4 -10 7 -18 15 -18 17 0 8 8 3 21 -13z
m49 -2217 c0 -2 -7 -7 -16 -10 -8 -3 -12 -2 -9 4 6 10 25 14 25 6z m-1549
-183 c12 -16 12 -17 -2 -6 -9 7 -20 9 -24 5 -5 -4 -5 -1 -1 6 9 16 11 15 27
-5z m1559 -146 c0 -2 -8 -11 -18 -20 -15 -14 -19 -15 -19 -2 0 8 4 12 8 9 4
-2 10 0 14 6 6 10 15 14 15 7z m-439 -1850 c-10 -9 -11 -8 -5 6 3 10 9 15 12
12 3 -3 0 -11 -7 -18z m-784 -62 c0 -8 -4 -12 -9 -9 -5 3 -6 10 -3 15 9 13 12
11 12 -6z"/>
<path d="M7884 6342 c3 -6 -2 -15 -11 -21 -10 -5 -15 -12 -12 -15 3 -4 14 2
23 13 13 14 14 21 5 27 -7 4 -10 3 -5 -4z"/>
<path d="M8070 8765 c0 -4 9 -18 20 -32 11 -14 20 -22 20 -18 0 4 -9 18 -20
32 -11 14 -20 22 -20 18z"/>
<path d="M5300 8260 c-9 -6 -10 -10 -3 -10 6 0 15 5 18 10 8 12 4 12 -15 0z"/>
<path d="M3695 8170 c3 -5 8 -10 11 -10 2 0 4 5 4 10 0 6 -5 10 -11 10 -5 0
-7 -4 -4 -10z"/>
<path d="M3880 7900 c0 -5 5 -10 11 -10 5 0 7 5 4 10 -3 6 -8 10 -11 10 -2 0
-4 -4 -4 -10z"/>
<path d="M11005 6460 c-3 -6 1 -7 9 -4 18 7 21 14 7 14 -6 0 -13 -4 -16 -10z"/>
<path d="M7863 5945 c0 -7 6 -11 14 -8 7 3 13 6 13 8 0 2 -6 5 -13 8 -8 3 -14
-1 -14 -8z"/>
<path d="M5890 5660 c0 -5 5 -10 11 -10 5 0 7 5 4 10 -3 6 -8 10 -11 10 -2 0
-4 -4 -4 -10z"/>
<path d="M10481 5427 c-13 -21 -12 -21 5 -5 10 10 16 20 13 22 -3 3 -11 -5
-18 -17z"/>
<path d="M3545 5060 c-3 -6 1 -7 9 -4 18 7 21 14 7 14 -6 0 -13 -4 -16 -10z"/>
<path d="M7806 4492 c-3 -5 1 -9 9 -9 8 0 12 4 9 9 -3 4 -7 8 -9 8 -2 0 -6 -4
-9 -8z"/>
<path d="M6755 4140 c3 -5 8 -10 11 -10 2 0 4 5 4 10 0 6 -5 10 -11 10 -5 0
-7 -4 -4 -10z"/>
</g>
</svg>
