<?xml version="1.0" standalone="no"?>
<!DOCTYPE svg PUBLIC "-//W3C//DTD SVG 20010904//EN"
 "http://www.w3.org/TR/2001/REC-SVG-20010904/DTD/svg10.dtd">
<svg version="1.0" xmlns="http://www.w3.org/2000/svg"
 width="3179.000000pt" height="3179.000000pt" viewBox="0 0 3179.000000 3179.000000"
 preserveAspectRatio="xMidYMid meet">
<metadata>
Created by potrace 1.11, written by Peter Selinger 2001-2013
</metadata>
<g transform="translate(0.000000,3179.000000) scale(0.100000,-0.100000)"
fill="#000000" stroke="none">
<path d="M12748 29035 c-1 -2 -41 -6 -88 -9 -107 -8 -162 -15 -225 -26 -27 -5
-64 -12 -82 -15 -64 -10 -360 -104 -428 -135 -11 -5 -54 -23 -95 -40 -314
-130 -672 -393 -880 -645 -204 -249 -332 -574 -375 -955 -12 -109 -13 -430 0
-508 25 -164 50 -280 85 -394 17 -57 33 -107 34 -113 2 -5 6 -17 9 -25 3 -8
12 -35 21 -60 52 -160 155 -430 196 -515 95 -197 243 -399 430 -587 54 -54 96
-99 95 -100 -1 -2 -5 -43 -9 -93 -8 -129 -23 -232 -51 -375 -32 -163 -40 -259
-40 -510 0 -203 7 -376 20 -485 4 -31 13 -121 21 -215 5 -67 14 -145 20 -185
11 -71 21 -129 29 -165 3 -14 10 -47 15 -75 6 -27 22 -90 36 -140 39 -136 46
-178 35 -200 -3 -5 -6 -26 -7 -45 -6 -91 -12 -152 -17 -156 -3 -3 -1 -19 3
-35 5 -16 5 -27 0 -24 -4 3 -10 1 -12 -5 -2 -6 -13 -5 -28 3 -14 8 -31 12 -38
9 -6 -2 -12 1 -12 7 0 6 -7 8 -15 5 -8 -4 -15 -1 -15 5 0 7 -8 8 -25 1 -16 -6
-27 -6 -31 2 -5 7 -2 8 7 3 8 -5 11 -4 6 0 -11 12 -47 14 -47 2 0 -5 -5 -5
-13 1 -8 7 -18 7 -27 2 -9 -6 -18 -5 -23 3 -7 9 -10 9 -14 -1 -4 -9 -8 -10
-18 -2 -9 8 -17 6 -29 -5 -12 -12 -16 -13 -16 -3 0 9 -3 9 -8 2 -4 -6 -15 -10
-25 -8 -10 1 -21 -4 -24 -12 -3 -8 -9 -14 -15 -14 -5 0 -7 4 -3 9 6 11 -57
-18 -65 -29 -6 -9 -52 -25 -63 -22 -4 1 -6 -4 -5 -10 2 -7 -3 -12 -11 -10 -9
2 -11 -3 -7 -13 3 -9 2 -14 -2 -11 -9 5 -87 -63 -87 -77 0 -5 -7 -14 -16 -20
-9 -7 -28 -34 -43 -62 -16 -27 -33 -53 -38 -56 -5 -3 -10 -10 -10 -15 0 -5 -5
-20 -10 -34 -6 -14 -11 -32 -13 -40 -2 -8 -4 -17 -5 -20 -1 -3 -2 -8 -1 -12 0
-5 -4 -8 -10 -8 -5 0 -7 -4 -4 -10 3 -5 1 -10 -6 -10 -8 0 -8 -4 1 -15 9 -10
9 -15 1 -15 -6 0 -11 -11 -11 -24 0 -13 -6 -27 -12 -29 -10 -4 -10 -6 0 -6 7
-1 10 -5 7 -11 -8 -13 -14 -46 -17 -90 -1 -19 -7 -38 -12 -42 -7 -5 -6 -8 2
-8 8 0 10 -5 6 -12 -12 -19 -12 -48 -1 -48 5 0 4 -6 -2 -13 -6 -8 -8 -17 -4
-21 11 -11 10 -46 -1 -46 -7 0 -7 -3 -1 -8 9 -6 15 -50 18 -119 1 -13 4 -23 8
-23 4 0 7 -10 7 -22 2 -55 22 -138 34 -138 5 0 7 -4 3 -9 -8 -14 31 -114 92
-236 42 -84 139 -220 198 -278 57 -56 104 -97 110 -97 3 0 15 -9 27 -20 53
-49 270 -134 321 -124 9 1 17 -1 17 -5 0 -8 62 -5 88 4 6 2 12 -1 12 -8 0 -8
3 -8 9 2 7 11 11 10 19 -5 5 -11 8 -29 7 -41 -1 -13 2 -23 6 -23 4 0 6 -8 4
-17 -1 -10 0 -22 3 -28 3 -5 7 -16 8 -25 1 -8 5 -28 8 -45 4 -16 9 -44 11 -62
2 -18 7 -38 11 -44 3 -6 8 -25 9 -42 2 -17 7 -33 12 -34 5 -2 8 -17 7 -33 -1
-17 2 -30 6 -30 5 0 7 -9 5 -20 -2 -11 0 -22 5 -25 4 -3 7 -19 6 -35 -1 -17 4
-36 11 -42 7 -6 13 -21 13 -34 0 -13 4 -24 9 -24 5 0 7 -8 4 -19 -3 -10 0 -22
6 -25 5 -4 8 -13 4 -21 -3 -8 -1 -15 4 -15 5 0 10 -14 11 -31 1 -18 6 -37 9
-43 4 -6 8 -17 10 -25 1 -8 8 -18 15 -22 9 -6 9 -9 1 -9 -8 0 -8 -8 0 -32 7
-18 15 -35 19 -38 4 -3 8 -20 10 -38 1 -18 5 -32 8 -32 7 0 34 -89 33 -107 0
-7 4 -13 10 -13 6 0 7 -3 4 -7 -4 -3 -1 -13 5 -21 7 -8 14 -25 15 -37 2 -13
10 -36 18 -52 8 -15 15 -34 15 -40 0 -7 5 -13 11 -13 5 0 8 -4 5 -9 -5 -8 9
-49 46 -131 7 -14 12 -28 12 -32 1 -3 4 -10 9 -14 4 -4 7 -16 7 -26 0 -10 5
-18 10 -18 6 0 10 -8 10 -18 0 -10 5 -23 12 -30 7 -7 8 -12 3 -12 -4 0 0 -10
11 -22 10 -12 13 -18 5 -13 -10 5 -7 -2 5 -21 11 -16 26 -44 34 -62 7 -19 19
-40 27 -48 10 -10 11 -14 2 -14 -8 0 -8 -4 1 -15 19 -22 60 -106 60 -121 0 -7
4 -14 9 -16 5 -1 11 -10 13 -18 2 -8 11 -23 20 -34 10 -10 15 -23 12 -27 -2
-4 0 -10 6 -14 5 -3 17 -23 27 -43 9 -20 23 -43 30 -50 7 -8 11 -18 8 -23 -4
-5 -1 -9 4 -9 6 0 11 -7 11 -15 0 -8 5 -15 11 -15 5 0 8 -4 5 -9 -3 -5 1 -14
9 -21 8 -7 15 -18 15 -25 0 -7 7 -18 15 -25 8 -7 12 -16 9 -21 -3 -5 -1 -9 3
-9 5 0 17 -16 27 -35 10 -19 23 -32 28 -29 5 3 7 2 6 -3 -4 -14 13 -53 23 -53
5 0 9 -7 9 -15 0 -8 5 -15 10 -15 6 0 10 -7 10 -15 0 -8 4 -15 9 -15 5 0 11
-8 15 -17 8 -25 29 -57 44 -66 6 -4 12 -15 12 -22 0 -8 5 -15 10 -15 6 0 10
-5 10 -10 0 -11 10 -24 43 -61 9 -10 17 -23 17 -29 0 -5 8 -14 18 -19 9 -6 13
-11 7 -11 -5 0 1 -7 13 -16 12 -8 20 -19 17 -24 -3 -4 -2 -10 2 -12 5 -1 35
-37 68 -78 33 -41 72 -87 87 -103 16 -15 28 -31 28 -37 0 -5 8 -15 18 -22 11
-7 24 -23 31 -35 6 -13 19 -23 27 -23 10 0 14 -6 11 -14 -4 -9 2 -17 14 -21
11 -4 19 -9 16 -11 -6 -6 202 -214 214 -214 5 0 9 -7 9 -16 0 -8 5 -12 10 -9
6 3 10 -1 10 -10 0 -12 5 -15 17 -11 10 4 14 4 10 0 -9 -9 74 -84 86 -77 6 3
7 2 4 -4 -3 -5 6 -18 20 -29 15 -10 37 -29 49 -41 13 -13 27 -23 32 -23 5 0
14 -10 20 -22 6 -13 11 -17 11 -11 1 9 7 8 20 -4 11 -9 17 -21 14 -26 -3 -6
-1 -7 5 -3 7 4 12 2 12 -3 0 -6 7 -11 15 -11 8 0 15 -4 15 -10 0 -5 6 -10 13
-10 7 0 19 -9 27 -19 7 -11 17 -18 22 -15 4 3 11 -2 14 -10 3 -9 12 -16 20
-16 8 0 14 -4 14 -10 0 -5 5 -10 11 -10 6 0 17 -7 26 -15 8 -8 20 -12 26 -8 7
3 9 3 5 -2 -8 -8 111 -91 125 -87 4 1 7 -3 7 -9 0 -5 5 -7 10 -4 6 3 10 1 10
-4 0 -6 7 -11 16 -11 8 0 12 -4 9 -10 -3 -5 3 -10 14 -10 12 0 21 -3 21 -8 0
-4 13 -13 30 -20 16 -7 45 -24 65 -38 20 -13 33 -19 29 -12 -4 6 6 2 23 -10
17 -12 33 -19 37 -15 3 3 6 1 6 -5 0 -7 7 -12 15 -12 8 0 15 -5 15 -11 0 -5 4
-8 9 -4 5 3 15 0 23 -7 7 -7 20 -14 28 -16 20 -5 33 -18 38 -39 4 -22 2 -104
-3 -113 -2 -3 0 -12 5 -20 4 -7 4 -23 0 -35 -5 -14 -4 -27 3 -34 6 -6 7 -11 1
-11 -9 0 -10 -199 -1 -224 3 -7 1 -19 -3 -27 -5 -8 -4 -19 2 -26 6 -7 7 -13 2
-13 -8 0 -10 -84 -4 -115 1 -5 2 -25 1 -43 -1 -23 -5 -31 -13 -27 -7 4 -4 -1
6 -9 11 -9 16 -16 10 -16 -5 0 -8 -29 -6 -65 2 -47 -1 -65 -10 -65 -10 0 -10
-2 1 -9 8 -5 14 -28 15 -54 1 -43 0 -45 -26 -43 -15 1 -29 -1 -30 -5 -3 -7
-64 -19 -110 -21 -16 -1 -28 -4 -28 -8 0 -3 -8 -6 -17 -6 -22 -1 -80 -10 -153
-25 -30 -6 -62 -13 -70 -14 -8 -2 -15 -4 -15 -5 0 -1 -11 -3 -25 -4 -14 -2
-35 -6 -47 -10 -33 -11 -66 -18 -93 -20 -14 -1 -30 -5 -35 -8 -12 -8 -87 -23
-97 -20 -5 1 -8 -3 -8 -9 0 -5 -4 -7 -10 -4 -6 3 -16 3 -22 -2 -7 -4 -20 -8
-28 -8 -8 0 -21 -4 -27 -8 -7 -5 -13 -6 -13 -2 0 3 -8 1 -18 -4 -11 -6 -30
-12 -43 -14 -13 -3 -42 -10 -64 -16 -22 -6 -42 -10 -45 -10 -3 1 -23 -6 -45
-15 -36 -14 -123 -38 -135 -38 -3 0 -13 -4 -23 -10 -10 -5 -26 -11 -35 -13 -9
-2 -36 -10 -59 -18 -22 -9 -44 -13 -47 -10 -3 4 -6 1 -6 -6 0 -6 -6 -11 -12
-10 -7 1 -20 -1 -28 -4 -28 -11 -155 -59 -165 -61 -5 -2 -23 -8 -38 -14 -16
-7 -32 -12 -36 -12 -4 0 -22 -7 -40 -16 -17 -9 -37 -17 -44 -18 -7 -1 -22 -7
-33 -14 -12 -6 -24 -8 -28 -5 -3 3 -6 2 -6 -4 0 -5 -6 -10 -12 -10 -7 0 -33
-10 -57 -21 -25 -12 -51 -22 -58 -22 -7 0 -13 -5 -13 -11 0 -5 -4 -8 -8 -5 -5
3 -20 -1 -35 -9 -14 -7 -28 -11 -31 -7 -3 3 -6 0 -6 -6 0 -7 -5 -12 -10 -12
-6 0 -49 -18 -96 -40 -47 -22 -89 -40 -94 -40 -4 0 -13 -7 -20 -15 -7 -8 -16
-13 -20 -10 -5 3 -16 -2 -24 -11 -9 -8 -16 -13 -16 -10 0 6 -204 -97 -315
-159 -124 -68 -211 -120 -227 -133 -10 -8 -18 -11 -18 -7 0 5 -10 -1 -22 -12
-13 -11 -45 -32 -73 -48 -59 -33 -214 -135 -233 -152 -7 -7 -17 -13 -21 -13
-4 0 -21 -11 -37 -25 -16 -14 -34 -25 -41 -25 -6 0 -13 -4 -15 -8 -1 -4 -41
-36 -88 -70 -47 -35 -92 -68 -100 -75 -8 -7 -33 -26 -55 -42 -22 -16 -47 -38
-56 -47 -9 -10 -20 -18 -24 -18 -4 0 -24 -15 -44 -32 -20 -18 -61 -53 -91 -78
-62 -52 -68 -57 -191 -170 -124 -114 -287 -279 -281 -285 3 -3 1 -5 -5 -5 -9
0 -186 -193 -226 -245 -19 -25 -108 -133 -124 -150 -7 -8 -13 -16 -13 -20 0
-3 -9 -16 -20 -28 -29 -31 -69 -85 -115 -153 -22 -33 -42 -61 -45 -64 -3 -3
-29 -41 -58 -85 -28 -44 -57 -85 -62 -92 -6 -7 -10 -15 -10 -18 0 -4 -13 -26
-30 -50 -16 -24 -30 -48 -30 -54 0 -6 -5 -11 -11 -11 -5 0 -8 -4 -4 -9 3 -6
-3 -14 -12 -20 -10 -6 -15 -11 -10 -11 4 0 -4 -19 -19 -41 -25 -40 -192 -362
-196 -377 -7 -32 -12 -42 -19 -42 -5 0 -8 -3 -8 -7 1 -5 0 -11 -1 -15 -1 -5
-3 -11 -4 -15 -1 -5 -10 -25 -19 -46 -9 -20 -15 -39 -14 -40 1 -2 -5 -14 -14
-27 -16 -25 -34 -78 -31 -92 1 -5 -3 -8 -8 -8 -6 0 -10 -6 -10 -14 0 -8 -5
-27 -11 -43 -6 -15 -9 -28 -7 -29 2 0 -2 -7 -9 -15 -7 -8 -15 -30 -18 -49 -3
-19 -11 -38 -18 -42 -6 -4 -8 -10 -4 -14 4 -4 2 -13 -4 -21 -6 -7 -8 -13 -4
-13 4 0 3 -6 -3 -13 -6 -7 -12 -24 -14 -37 -2 -14 -6 -29 -9 -35 -8 -14 -34
-118 -31 -127 1 -5 -3 -8 -10 -8 -6 0 -9 -2 -6 -5 3 -3 -3 -38 -12 -78 l-17
-72 -955 -5 -955 -5 -35 -27 c-64 -49 -93 -147 -74 -253 5 -31 14 -93 22 -155
2 -19 9 -62 14 -95 6 -33 13 -78 15 -100 3 -22 7 -51 9 -65 2 -14 7 -47 10
-75 3 -27 8 -61 11 -75 3 -14 7 -41 10 -60 2 -19 7 -53 10 -75 3 -22 7 -51 10
-65 2 -14 7 -47 10 -75 3 -27 7 -61 10 -75 3 -14 8 -45 11 -70 3 -25 7 -56 10
-70 2 -14 6 -45 10 -70 3 -25 8 -56 10 -70 3 -14 7 -43 9 -65 3 -22 7 -49 9
-60 2 -11 7 -45 11 -75 4 -30 9 -64 11 -75 2 -11 7 -44 10 -74 3 -30 8 -64 10
-75 3 -12 7 -43 10 -71 3 -27 9 -68 13 -90 5 -22 9 -47 9 -55 1 -23 9 -82 15
-110 3 -14 9 -47 12 -75 3 -27 7 -61 9 -75 3 -14 10 -61 16 -105 6 -44 13 -96
16 -115 7 -44 12 -81 20 -145 3 -27 7 -52 9 -55 3 -6 16 -97 21 -150 1 -19 4
-35 4 -35 1 0 3 -11 5 -25 2 -23 11 -86 35 -240 5 -36 12 -90 15 -120 4 -30 8
-62 10 -70 6 -19 36 -226 50 -335 2 -16 11 -79 20 -140 21 -141 34 -231 50
-350 3 -22 7 -49 9 -61 2 -12 7 -45 11 -75 3 -30 8 -61 10 -69 2 -8 7 -36 10
-62 6 -54 12 -97 25 -188 6 -36 12 -81 15 -100 2 -19 7 -48 9 -65 3 -16 12
-79 21 -140 8 -60 22 -156 30 -213 8 -56 16 -117 19 -135 2 -18 9 -66 16 -107
6 -41 13 -91 16 -110 2 -19 6 -48 8 -65 3 -16 12 -82 21 -145 16 -111 20 -138
30 -197 2 -16 7 -50 10 -78 3 -27 8 -63 10 -80 12 -73 15 -91 21 -134 3 -25 8
-57 10 -71 2 -14 7 -43 10 -65 10 -78 13 -100 18 -137 3 -21 8 -54 11 -74 3
-21 7 -46 10 -58 2 -12 7 -43 10 -71 2 -27 6 -59 9 -70 2 -11 7 -45 11 -75 3
-30 13 -93 20 -140 8 -47 16 -107 19 -135 3 -27 7 -59 9 -70 3 -11 8 -42 11
-70 4 -27 11 -79 17 -115 9 -57 8 -66 -7 -77 -10 -7 -26 -13 -36 -13 -10 0
-18 -4 -18 -10 0 -5 -6 -10 -14 -10 -7 0 -30 -11 -50 -25 -20 -13 -36 -22 -36
-19 0 3 -6 -1 -14 -8 -7 -7 -31 -27 -52 -45 -64 -51 -84 -70 -84 -77 0 -4 -10
-18 -22 -32 -52 -57 -58 -64 -55 -69 1 -2 -6 -13 -15 -25 -10 -11 -15 -20 -12
-20 3 0 -2 -12 -10 -27 -32 -60 -59 -151 -73 -248 -11 -68 -7 -326 6 -415 10
-70 10 -154 0 -206 -1 -5 -1 -11 0 -14 1 -3 4 -30 6 -60 5 -76 11 -110 23
-141 6 -15 8 -30 5 -33 -4 -3 -1 -6 6 -6 7 0 10 -4 7 -8 -3 -5 10 -40 28 -78
74 -156 94 -212 80 -218 -7 -3 -16 -1 -19 5 -4 5 -11 6 -17 3 -13 -8 -119 -11
-124 -3 -2 3 -29 2 -61 -4 -58 -10 -157 -63 -147 -79 3 -4 0 -8 -6 -8 -15 0
-50 -61 -50 -87 0 -18 275 -421 344 -504 7 -9 33 -45 57 -80 23 -35 48 -69 53
-76 6 -6 105 -143 219 -305 183 -257 216 -298 265 -331 l57 -38 7680 -1 7680
-1 50 34 c28 19 52 37 55 40 39 47 84 109 217 296 189 266 166 233 263 368 44
61 102 142 129 181 27 39 87 123 133 187 45 63 90 125 98 137 8 12 25 36 37
53 14 18 19 35 14 41 -5 6 -12 22 -16 36 -4 13 -13 30 -19 37 -6 7 -16 18 -22
25 -17 20 -66 53 -72 50 -3 -2 -8 2 -12 8 -4 7 -26 13 -49 13 -22 1 -41 5 -41
9 0 5 -30 4 -37 -2 -8 -6 -31 -5 -50 2 -14 4 -23 4 -23 -3 0 -6 -6 -6 -19 1
-14 7 -21 6 -24 -3 -4 -9 -6 -9 -6 1 -1 10 -6 10 -21 2 -25 -14 -26 -14 10 64
16 36 26 66 22 66 -4 0 -1 4 6 9 7 4 14 18 15 29 1 12 4 22 8 22 9 0 56 117
71 177 6 27 12 122 13 213 1 91 6 194 10 230 10 78 11 281 2 366 -7 57 -28
145 -46 189 -22 53 -57 121 -68 133 -7 7 -13 16 -13 20 0 12 -140 167 -140
155 0 -4 -13 6 -30 22 -16 16 -30 25 -30 20 0 -4 -8 2 -19 13 -10 12 -21 19
-25 15 -3 -3 -6 -2 -6 4 0 6 -13 13 -29 16 -16 3 -35 13 -44 21 -8 8 -17 13
-20 10 -3 -3 -15 1 -27 8 -22 13 -22 13 -6 119 3 13 7 46 11 72 4 27 9 59 11
70 3 12 7 45 9 72 3 28 7 61 10 75 2 13 7 42 10 65 3 22 8 58 12 80 3 22 7 51
8 65 2 14 6 42 9 62 3 21 8 55 11 75 3 21 10 66 15 100 6 34 10 66 9 70 -1 4
0 10 1 13 3 8 7 32 14 85 3 28 8 61 10 75 3 14 7 43 10 65 2 22 9 69 15 105 6
36 13 88 16 115 4 28 9 64 12 80 3 17 7 46 9 65 2 19 10 76 18 125 9 50 18
115 21 145 3 30 8 63 11 73 3 10 7 37 9 60 2 23 8 71 14 107 10 63 19 128 26
180 1 14 6 45 9 70 4 25 9 56 11 70 29 191 32 216 39 275 2 17 5 30 5 30 1 0
4 16 6 35 1 19 10 80 18 135 20 126 26 172 32 221 6 57 22 162 29 200 2 11 7
44 11 74 9 79 12 101 19 140 13 85 28 187 31 210 1 14 8 61 14 105 7 44 14 94
16 110 4 29 12 83 21 138 2 15 7 48 10 75 6 54 8 69 24 172 6 41 13 91 16 110
3 19 7 46 9 60 3 14 7 50 11 80 3 30 8 64 11 75 2 11 6 34 7 50 7 59 20 151
30 200 2 11 7 46 11 79 3 32 8 68 10 80 2 11 6 41 9 66 3 25 8 54 10 65 4 23
17 109 21 145 1 14 8 61 14 105 7 44 14 93 16 108 11 79 17 114 21 138 2 15 6
47 9 70 3 24 10 71 15 104 5 33 12 77 15 98 3 20 7 54 11 75 3 20 7 51 9 67 2
17 6 46 9 65 10 73 20 136 22 150 2 8 5 38 8 65 3 28 5 50 6 50 3 0 8 31 14
87 4 31 9 66 11 79 5 26 34 224 40 274 6 50 14 103 19 137 6 37 15 95 22 148
2 19 7 46 10 60 2 14 7 59 10 102 9 113 -21 185 -93 228 -33 19 -59 20 -1009
20 -537 0 -980 2 -984 5 -4 3 -10 19 -13 37 -3 18 -10 53 -17 78 -11 43 -18
72 -23 95 -2 6 -6 16 -10 23 -5 6 -6 16 -2 21 3 5 1 12 -4 15 -5 4 -12 24 -16
46 -4 22 -10 40 -14 40 -4 0 -7 10 -8 22 -2 20 -12 52 -33 103 -7 17 -31 88
-35 105 -1 3 -6 16 -12 30 -6 14 -21 50 -33 80 -32 80 -70 168 -123 280 -17
36 -30 67 -28 69 1 2 -1 7 -6 10 -4 3 -19 30 -33 58 -14 29 -29 53 -33 53 -5
0 -6 4 -2 9 3 5 1 12 -4 15 -5 3 -24 35 -42 71 -18 36 -37 65 -42 65 -6 0 -8
3 -5 6 9 8 -196 334 -214 342 -5 2 -8 9 -8 15 0 7 -11 25 -25 40 -14 15 -23
27 -20 27 4 0 -1 7 -10 16 -9 9 -24 29 -33 43 -9 14 -24 35 -34 46 -28 34
-112 140 -138 175 -14 19 -35 43 -47 54 -13 11 -23 23 -23 27 0 4 -15 23 -32
41 -18 19 -62 67 -98 107 -114 128 -319 329 -466 458 -110 96 -143 124 -239
200 -33 26 -65 53 -72 58 -7 6 -40 30 -73 55 -33 25 -83 62 -110 83 -27 20
-54 37 -60 37 -5 0 -10 4 -10 8 0 5 -12 15 -27 23 -16 8 -35 22 -44 31 -9 10
-19 15 -23 11 -3 -3 -6 -1 -6 5 0 7 -6 12 -13 12 -8 0 -22 9 -32 20 -10 11
-24 20 -32 20 -7 0 -13 5 -13 10 0 6 -7 10 -15 10 -8 0 -15 5 -15 10 0 6 -7
10 -15 10 -8 0 -15 5 -15 10 0 6 -6 10 -14 10 -8 0 -21 6 -28 14 -8 7 -29 21
-48 31 -18 9 -42 26 -53 36 -12 10 -25 19 -30 19 -12 0 -151 83 -155 92 -2 5
-10 8 -19 8 -8 0 -26 9 -40 20 -14 11 -29 17 -34 14 -5 -3 -9 -2 -9 3 0 4 -44
31 -98 58 -53 28 -98 53 -100 58 -2 4 -10 7 -18 7 -16 0 -56 20 -65 33 -3 5
-9 8 -13 7 -4 -1 -37 13 -74 31 -161 77 -301 136 -306 131 -3 -3 -6 0 -6 6 0
7 -7 12 -15 12 -8 0 -34 9 -57 19 -24 10 -68 29 -98 41 -30 12 -63 26 -72 31
-10 5 -24 9 -31 9 -7 0 -32 9 -55 20 -22 11 -45 20 -51 20 -5 0 -22 5 -38 12
-15 6 -30 12 -33 13 -27 6 -87 29 -96 36 -6 5 -14 6 -17 2 -4 -3 -12 -1 -19 4
-11 8 -36 17 -113 39 -5 2 -41 13 -80 25 -38 11 -89 26 -112 32 -24 6 -43 13
-43 17 0 4 -13 6 -30 5 -16 -1 -30 2 -30 8 0 5 -6 7 -14 4 -7 -3 -18 -1 -22 3
-5 5 -27 12 -49 16 -22 3 -47 9 -55 14 -13 7 -95 24 -95 20 0 -1 -13 3 -28 9
-15 6 -42 13 -60 16 -18 3 -48 10 -67 15 -19 5 -46 11 -60 14 -14 3 -36 7 -50
10 -14 3 -39 8 -55 12 l-30 5 1 617 c0 471 3 616 12 614 7 -1 12 3 12 9 0 5 4
8 9 5 4 -3 18 5 31 19 12 13 28 21 35 19 7 -3 16 4 20 15 3 12 10 19 15 16 5
-3 15 1 23 9 8 8 17 12 21 9 3 -4 6 -1 6 5 0 7 6 12 14 12 8 0 17 7 20 16 3 8
10 12 16 9 5 -3 10 1 10 10 0 9 4 14 9 10 5 -3 16 4 24 15 7 11 17 17 20 13 4
-3 7 0 7 7 0 7 3 11 6 7 4 -3 15 4 25 16 10 12 18 19 19 14 0 -4 16 7 36 25
20 18 40 33 44 33 4 0 19 12 33 27 14 15 28 24 31 21 3 -4 6 1 6 11 0 9 5 14
10 11 6 -3 10 -1 10 4 0 6 7 11 16 11 8 0 13 3 11 8 -3 4 1 13 9 20 8 7 14 10
14 7 0 -3 11 6 25 20 14 14 30 25 35 25 5 0 12 9 15 21 4 11 9 18 12 15 3 -3
21 12 40 32 20 20 39 36 44 34 5 -1 9 3 9 9 0 12 50 59 63 59 4 0 6 4 5 9 -2
5 25 36 60 69 34 33 62 63 62 66 0 4 46 55 110 122 11 12 20 26 20 31 0 6 7
14 16 17 8 3 12 11 8 17 -4 8 -3 9 5 5 6 -4 14 0 18 11 4 9 19 29 34 44 15 15
25 30 22 33 -3 3 2 8 11 12 9 3 16 10 16 15 0 6 5 15 10 22 47 55 61 74 66 90
3 9 9 17 14 17 4 0 21 20 37 45 15 25 32 45 36 45 5 0 6 4 3 9 -3 5 1 12 10
15 8 3 13 10 9 15 -3 5 3 16 13 23 11 7 20 18 21 23 0 6 8 18 16 28 8 9 15 19
15 22 0 3 19 35 43 72 24 38 44 72 44 77 1 5 5 12 11 15 5 3 20 26 34 51 14
25 37 65 52 90 15 25 31 57 37 73 6 15 15 27 21 27 6 0 8 7 4 15 -3 8 -2 15 2
15 8 0 76 127 77 143 0 4 6 11 13 16 8 5 13 10 12 12 -1 2 6 24 16 49 10 25
18 48 16 53 -1 4 2 7 7 7 5 0 15 16 21 35 6 19 16 35 22 35 6 0 9 3 5 6 -3 3
4 27 15 52 29 67 41 96 43 102 1 3 7 18 13 33 7 16 12 33 12 38 0 5 5 9 11 9
5 0 8 3 5 8 -2 4 4 25 14 47 10 22 16 43 14 47 -3 5 0 8 5 8 6 0 11 9 11 19 0
11 5 23 10 26 6 4 8 10 5 15 -3 5 -1 11 5 15 6 4 8 10 5 15 -3 5 -1 11 5 15 5
3 10 15 10 26 0 10 5 19 11 19 5 0 7 5 4 10 -4 6 -3 16 2 23 8 9 27 66 38 107
11 41 30 98 38 107 5 7 6 17 2 23 -3 5 -1 10 6 10 7 0 10 3 6 6 -3 3 1 23 8
44 7 21 11 41 8 44 -4 3 0 6 7 6 7 0 11 3 8 6 -4 3 -2 20 4 37 5 18 22 82 38
142 15 61 30 117 33 125 4 8 9 31 12 50 9 52 10 59 17 66 4 3 4 12 1 20 -3 8
-1 20 4 27 5 6 10 21 11 32 2 21 9 60 12 60 1 0 11 70 12 93 1 6 5 12 10 12 5
0 7 4 4 8 -8 14 12 36 36 38 43 5 73 11 101 23 16 6 35 11 43 11 8 0 14 5 14
12 0 6 3 8 6 5 13 -13 147 69 219 135 79 72 90 84 125 128 19 25 38 47 42 48
5 2 8 10 8 18 0 8 6 17 14 20 8 3 17 15 20 27 3 13 15 32 26 45 11 12 19 22
16 22 -3 0 10 30 28 68 18 37 39 85 46 107 7 22 17 46 23 53 5 6 6 12 2 12 -4
0 -2 6 4 13 6 8 8 17 4 20 -3 4 -2 7 3 7 6 0 9 12 9 28 -1 15 2 32 6 37 10 15
28 122 32 190 1 17 6 33 12 37 6 5 5 8 -4 8 -11 0 -11 3 -1 15 9 11 9 15 1 15
-7 0 -9 5 -5 12 12 19 12 48 0 48 -6 0 -4 5 4 10 8 5 10 10 5 10 -12 0 -13 46
-2 57 4 3 3 11 -2 17 -5 6 -11 27 -14 47 -2 20 -8 42 -11 48 -4 6 -2 11 5 11
10 0 10 3 1 12 -7 7 -12 22 -12 34 0 13 -4 25 -9 28 -4 3 -11 23 -15 45 -3 22
-13 46 -21 55 -9 8 -15 19 -14 23 4 22 -2 44 -10 39 -8 -6 -26 40 -22 57 1 5
-3 6 -8 3 -5 -4 -12 3 -16 14 -3 11 -12 20 -18 20 -7 0 -6 4 3 10 13 8 12 10
-3 10 -10 0 -21 8 -24 18 -10 28 -93 103 -105 96 -6 -4 -9 -3 -6 2 3 5 0 15
-8 22 -8 7 -14 10 -14 7 0 -4 -12 2 -27 13 -16 11 -32 21 -38 23 -5 2 -9 7 -8
11 2 4 -4 5 -12 2 -8 -4 -15 -1 -15 7 0 7 -3 9 -7 6 -3 -4 -13 -1 -21 6 -13 9
-14 9 -8 0 10 -18 -10 -16 -28 3 -12 12 -16 12 -16 2 0 -10 -2 -10 -9 1 -5 8
-16 11 -24 8 -9 -3 -18 -1 -21 6 -3 9 -5 9 -5 0 -1 -8 -10 -9 -28 -4 -16 4
-40 4 -55 0 -18 -5 -28 -3 -28 3 0 6 -8 4 -17 -5 -15 -13 -21 -13 -36 -3 -10
8 -15 20 -11 30 3 9 1 16 -4 16 -7 0 -8 11 -1 32 14 51 11 145 -7 186 -28 64
-26 96 11 219 20 65 38 125 40 133 2 8 40 137 84 285 118 401 186 662 227 870
9 45 144 680 180 846 3 13 7 35 10 49 13 66 75 301 93 351 17 50 27 91 46 189
4 22 11 60 30 180 13 83 34 260 40 350 4 47 9 99 12 115 2 17 6 138 7 270 4
287 -8 404 -60 575 -59 193 -118 329 -249 575 -276 520 -663 807 -1260 936
-142 31 -389 32 -695 3 -70 -6 -149 -12 -270 -19 -52 -3 -117 -7 -145 -10 -27
-2 -86 -7 -130 -10 -44 -3 -100 -8 -125 -10 -25 -3 -76 -7 -115 -10 -38 -3
-92 -7 -120 -10 -27 -2 -86 -7 -130 -11 -44 -3 -100 -7 -125 -9 -329 -27 -776
-27 -885 -1 -11 3 -36 7 -55 10 -19 2 -60 10 -90 16 -30 6 -66 13 -80 16 -14
2 -32 7 -40 10 -8 3 -26 8 -40 10 -14 3 -56 14 -94 25 -38 12 -76 22 -85 24
-9 2 -90 26 -181 54 -152 46 -299 86 -346 95 -11 2 -37 9 -59 14 -22 6 -52 14
-67 17 -109 21 -429 101 -728 182 -52 14 -102 26 -110 28 -13 3 -254 61 -395
95 -22 6 -53 12 -70 15 -16 3 -66 12 -110 20 -83 14 -121 19 -240 30 -38 4
-86 9 -105 12 -39 5 -676 13 -682 8z m6630 -4462 c27 -83 71 -241 81 -293 46
-242 49 -270 20 -190 -18 49 -29 94 -45 180 -3 14 -12 50 -21 80 -25 87 -62
260 -54 260 3 0 12 -17 19 -37z"/>
<path d="M25766 4517 c-11 -8 -16 -19 -12 -25 3 -6 9 -30 12 -54 3 -24 9 -65
14 -93 5 -27 12 -70 16 -95 11 -73 12 -83 19 -120 l6 -35 -73 -19 c-89 -22
-256 -100 -320 -149 -33 -26 -53 -34 -65 -29 -26 10 -123 85 -123 94 0 4 -6 8
-14 8 -8 0 -16 3 -18 8 -3 7 -133 112 -156 126 -12 7 -42 -9 -42 -24 0 -3 17
-25 38 -48 20 -22 66 -73 102 -113 36 -39 74 -81 86 -93 49 -51 50 -49 -10
-128 -58 -75 -125 -201 -146 -275 -12 -38 -39 -61 -55 -45 -3 3 -24 7 -48 8
-23 1 -76 5 -117 9 -145 13 -201 15 -210 10 -15 -9 6 -50 26 -52 11 -1 96 -22
189 -46 125 -33 169 -49 166 -58 -7 -25 -9 -322 -3 -379 6 -49 5 -57 -15 -72
-11 -10 -28 -18 -36 -18 -9 0 -18 -4 -21 -9 -5 -7 -121 -70 -193 -105 -13 -6
-23 -15 -23 -19 0 -5 -4 -6 -9 -2 -18 10 -19 -11 -3 -33 16 -20 19 -21 45 -7
15 7 27 12 27 9 0 -2 14 2 30 11 17 9 30 13 30 11 0 -3 16 2 35 10 20 8 40 12
45 9 6 -4 10 -1 10 4 0 6 9 11 20 11 11 0 20 4 20 8 0 5 6 9 13 9 6 0 21 3 33
7 19 6 24 -3 53 -91 30 -93 66 -171 123 -273 83 -147 158 -292 158 -305 0 -3
-79 -5 -175 -5 l-174 0 -15 -29 c-8 -15 -19 -41 -23 -57 -4 -16 -9 -372 -10
-790 -3 -736 -2 -764 17 -826 49 -161 175 -281 337 -323 86 -23 1361 -22 1448
0 159 42 277 154 332 315 22 65 22 66 22 820 0 752 0 755 -22 820 l-22 65
-197 3 c-109 1 -198 5 -198 8 0 9 101 204 127 247 41 66 106 199 142 294 l36
91 88 -42 c48 -23 87 -41 87 -39 0 1 20 -9 44 -22 25 -14 51 -25 59 -25 8 0
20 -7 27 -15 7 -9 15 -14 17 -11 2 2 16 -2 30 -9 23 -12 28 -12 39 3 19 25 19
26 -38 62 -29 19 -55 36 -58 39 -13 15 -161 111 -170 111 -6 0 -8 5 -5 10 3 6
0 10 -8 10 -8 0 -24 9 -37 20 -13 11 -29 20 -35 20 -12 0 -12 81 0 145 2 11 4
62 4 112 1 91 2 93 24 89 12 -2 30 1 40 6 11 6 17 5 17 -2 0 -6 5 -8 12 -4 7
5 35 9 63 10 27 1 50 3 50 4 0 1 151 11 213 14 26 1 39 31 22 51 -9 11 -17 12
-31 4 -10 -5 -19 -6 -19 -1 0 5 -12 9 -27 9 -16 1 -57 4 -93 7 -36 3 -93 8
-128 11 -70 5 -143 15 -153 21 -4 2 -10 24 -13 49 -10 62 -48 173 -90 256 -19
38 -30 69 -25 69 11 0 127 86 174 128 7 6 16 12 19 12 3 0 14 7 24 16 9 8 47
38 83 65 62 46 66 51 56 73 l-11 23 -56 -29 c-30 -16 -62 -33 -70 -37 -8 -4
-26 -14 -40 -21 -14 -7 -52 -27 -85 -44 -33 -16 -63 -34 -66 -39 -3 -4 -16 -9
-27 -10 -12 -1 -22 -4 -22 -8 0 -7 -51 -31 -56 -27 -2 2 -38 37 -81 79 -66 64
-127 109 -220 165 -16 10 -17 15 -5 50 23 64 74 208 82 229 26 66 42 112 46
129 2 10 6 21 9 24 7 7 -15 32 -30 32 -6 0 -29 -31 -50 -70 -21 -38 -42 -70
-47 -70 -4 0 -7 -3 -6 -7 4 -12 -26 -73 -35 -73 -5 0 -6 -4 -3 -9 3 -5 -1 -14
-9 -21 -8 -7 -15 -19 -15 -26 0 -8 -5 -14 -11 -14 -5 0 -7 -4 -4 -10 3 -5 2
-10 -2 -10 -5 0 -17 -21 -28 -46 -22 -50 -14 -49 -135 -20 -36 9 -126 19 -200
22 -74 4 -137 8 -139 11 -3 2 -6 9 -7 16 -2 11 -77 237 -92 277 -3 8 -13 37
-21 64 -18 55 -28 63 -55 43z"/>
</g>
</svg>
